<svg version="1.1" xmlns="http://www.w3.org/2000/svg" xmlns:xlink="http://www.w3.org/1999/xlink" x="0px" y="0px" viewBox="0 0 82.32 82.32" style="enable-background:new 0 0 82.32 82.32;" xml:space="preserve">
<g id="Arrière-plan_xA0_Image_1_">
</g>
<g id="Calque_2_xA0_Image_1_">
	<g>
		<path d="M50.65,11.01c-0.13,0.02-0.26,0.03-0.38,0.05c-0.05,0.01-0.12,0.02-0.14,0.05c-0.02,0.04,0,0.11,0.03,0.15
			c0.06,0.08,0.16,0.14,0.21,0.23c0.11,0.17,0.23,0.22,0.42,0.15c0.06-0.03,0.17-0.02,0.23,0.02c0.3,0.24,0.62,0.06,0.86-0.03
			c0.2-0.08,0.37-0.12,0.6-0.07c0.02-0.25,0.05-0.48,0.08-0.81c0.3,0.01,0.62,0.03,0.97,0.05c-0.01,0.39,0.64,0.21,0.59,0.71
			c-0.3-0.09-0.6-0.32-0.87,0.02c0.07,0.07,0.16,0.12,0.19,0.19c0.16,0.39,0.24,0.41,0.53,0.14c0.28,0.06,0.54,0.11,0.88,0.18
			c-0.21-0.23-0.35-0.39-0.51-0.57c0.24-0.16,0.42-0.05,0.57,0.05c0.14,0.1,0.22,0.08,0.37,0c0.18-0.1,0.41-0.13,0.63-0.15
			c-0.27,0.32-0.65,0.29-1.03,0.41c0.25,0.15,0.51,0.3,0.82,0.48c0.07-0.02,0.22-0.08,0.37-0.13c0.1,0.44,0.27,0.03,0.45,0.06
			c0.01,0.09,0.03,0.19,0.04,0.3c0.07-0.05,0.13-0.09,0.19-0.13c-0.23-0.29-0.21-0.35,0.21-0.5c-0.06-0.02-0.14-0.03-0.18-0.07
			c-0.04-0.04-0.04-0.12-0.06-0.19c-0.08,0.05-0.14,0.1-0.2,0.14c0.01-0.16,0.02-0.32,0.03-0.48c0.27,0.14,0.47,0.26,0.68,0.37
			c0.02-0.03,0.04-0.05,0.06-0.08c0.06,0.2,0.17,0.36,0.01,0.6c-0.16,0.23,0.41,0.9,0.7,0.86c0.05-0.01,0.1-0.02,0.14-0.04
			c0.34-0.22,0.42-0.19,0.52,0.25c0.11-0.04,0.21-0.07,0.33-0.12c0.02,0.05,0.05,0.1,0.09,0.18c0.05-0.07,0.09-0.12,0.11-0.14
			c0.12,0.11,0.23,0.2,0.34,0.3c0.17-0.3,0.3-0.56,0.45-0.81c0.06-0.09,0.18-0.13,0.28-0.18c0.02-0.01,0.1,0.07,0.1,0.08
			c-0.05,0.13-0.1,0.26-0.18,0.38c-0.03,0.05-0.11,0.06-0.16,0.09c0,0.03,0.01,0.05,0.01,0.08c0.27,0,0.55,0,0.8,0
			c0.04,0.09,0.09,0.21,0.15,0.33c-0.03,0.11-0.07,0.25-0.12,0.41c0.18-0.01,0.31-0.02,0.49-0.03c-0.08,0.13-0.12,0.21-0.17,0.3
			c0.05,0.01,0.08,0.04,0.11,0.03c0.2-0.06,0.29,0.02,0.4,0.19c0.1,0.15,0.33,0.21,0.5,0.32c0.17,0.12,0.33,0.26,0.51,0.36
			c0.07,0.04,0.18,0.05,0.26,0.03c0.11-0.03,0.21-0.1,0.35-0.17c-0.21-0.07-0.39-0.14-0.6-0.22c0.29-0.14,0.49-0.23,0.71-0.34
			c-0.03,0.09-0.06,0.16-0.11,0.3c0.16,0.03,0.34,0.14,0.44,0.08c0.28-0.15,0.47-0.06,0.68,0.16c-0.09,0.03-0.16,0.05-0.31,0.09
			c0.15,0.09,0.24,0.17,0.36,0.2c0.13,0.04,0.24,0.06,0.3,0.23c0.03,0.07,0.29,0.12,0.41,0.08c0.33-0.09,0.39-0.06,0.35,0.29
			c0.4,0.12,0.61,0.41,0.71,0.81c0.03,0.13,0.17,0.25,0.29,0.33c0.19,0.12,0.41,0.21,0.62,0.31c-0.17,0.56,0,0.75,0.6,0.7
			c0.26,0.54,0.64,0.65,1.22,0.33c0.04,0.19,0.1,0.38,0.13,0.57c0.03,0.2,0.09,0.31,0.34,0.16c-0.03,0.14-0.06,0.24-0.08,0.3
			c0.19,0.18,0.37,0.34,0.54,0.5c0.1,0.09,0.22,0.17,0.32,0.27c0.05,0.05,0.07,0.13,0.1,0.2c0.04,0.12,0.03,0.26,0.1,0.35
			c0.05,0.07,0.19,0.11,0.28,0.1c0.12-0.02,0.23-0.1,0.27-0.12c0.24,0.1,0.42,0.18,0.61,0.26c-0.01,0.15-0.03,0.33-0.04,0.51
			c0,0.06,0.02,0.14,0.06,0.19c0.24,0.32,0.38,0.3,0.65-0.12c0.41,0.33,0.56,0.93,1.12,1.12c0.03-0.02,0.06-0.03,0.09-0.05
			c0.03-0.02,0.05-0.05,0.12-0.12c0.17,0.27,0.34,0.5,0.47,0.76c0.11,0.2,0.31,0.27,0.53,0.19c0.05-0.02,0.16,0.06,0.22,0.11
			c0.05,0.05,0.08,0.21,0.1,0.2c0.39-0.04,0.49,0.33,0.71,0.52c0.18,0.15,0.33,0.34,0.52,0.53c0.01-0.01-0.03,0.03-0.05,0.06
			c0.08,0.15,0.14,0.31,0.25,0.43c0.17,0.19,0.37,0.34,0.56,0.51c0.05,0.04,0.14,0.07,0.15,0.11c0.05,0.2,0.13,0.32,0.37,0.28
			c0.05-0.01,0.13,0.07,0.17,0.13c0.07,0.1,0.11,0.22,0.17,0.34c-0.08-0.03-0.18-0.06-0.33-0.12c0.04,0.14,0.07,0.24,0.1,0.34
			c-0.23,0.04-0.49,0.04-0.32,0.4c0.02,0.03-0.08,0.11-0.1,0.17c-0.02,0.05-0.01,0.12-0.01,0.18c0.06-0.02,0.13-0.02,0.17-0.05
			c0.05-0.04,0.06-0.11,0.08-0.15c0.11,0.04,0.2,0.07,0.34,0.12c-0.07-0.27-0.13-0.47-0.18-0.67c0.13,0.04,0.26,0.07,0.47,0.13
			c-0.02,0.14-0.01,0.37-0.1,0.53c-0.06,0.11-0.3,0.11-0.51,0.17c0.01,0.08,0.07,0.24,0.04,0.38c-0.05,0.26,0.14,0.25,0.28,0.29
			c0.01,0,0.02,0.01,0.03,0.01c0.37,0.29,0.37,0.29,0.72,0.3c0.01,0.06,0.01,0.12,0.02,0.19c0.03,0,0.07-0.01,0.1-0.01
			c-0.02-0.13,0.01-0.29-0.07-0.38c-0.08-0.09-0.24-0.1-0.42-0.17c0.1-0.14,0.17-0.24,0.24-0.35c0.11,0.1,0.24,0.19,0.31,0.31
			c0.21,0.36,0.24,0.39,0.66,0.28c-0.03,0.46,0.37,0.52,0.65,0.7c0.04,0.03,0.1,0.02,0.14,0.03c0.09,0.03,0.14-0.25,0.22-0.04
			c0.03,0.07-0.14,0.2-0.13,0.23c0.02,0.28,0.03,0.51,0.06,0.72c0.04,0.22,0.1,0.44,0.15,0.62c-0.14,0.19-0.26,0.35-0.39,0.52
			c-0.02,0-0.04-0.01-0.07-0.01c0.02-0.17,0.03-0.35,0.05-0.57c-0.6-0.15-0.51,0.5-0.83,0.68c0.09,0.11,0.16,0.2,0.24,0.29
			c-0.25,0.04-0.28,0.03-0.33-0.15c-0.12-0.38-0.18-0.4-0.49-0.16c-0.02-0.01-0.04-0.02-0.05-0.03c-0.06-0.12-0.12-0.24-0.18-0.36
			c-0.07,0.12-0.17,0.23-0.2,0.36c-0.05,0.23-0.04,0.47-0.07,0.7c-0.02,0.09-0.1,0.16-0.16,0.24c-0.03-0.02-0.05-0.03-0.08-0.05
			c0.06-0.13,0.13-0.27,0.2-0.41c-0.17-0.11-0.25-0.04-0.31,0.12c-0.05,0.14-0.1,0.29-0.16,0.45c0.01,0,0.08,0.01,0.21,0.02
			c-0.07,0.1-0.12,0.18-0.17,0.26c-0.08-0.06-0.18-0.11-0.25-0.18c-0.08-0.08-0.14-0.17-0.24-0.29c-0.08,0.13-0.13,0.21-0.21,0.33
			c0.1,0.06,0.19,0.12,0.33,0.22c-0.46,0.06-0.38-0.36-0.69-0.51c0.08,0.25,0.13,0.45,0.22,0.72c-0.3-0.12-0.54-0.33-0.72,0.03
			c-0.06-0.05-0.11-0.07-0.13-0.11c-0.11-0.28-0.22-0.31-0.46-0.08c-0.09,0.09-0.36,0-0.55-0.03c-0.56-0.09-0.66-0.34-0.67-0.84
			c0-0.15-0.17-0.3-0.27-0.44c-0.11-0.14-0.24-0.27-0.36-0.4c-0.12-0.13-0.25-0.24-0.38-0.37c0.43-0.35,0.42-0.72-0.04-0.95
			c-0.06,0.13-0.12,0.26-0.2,0.43c-0.32-0.4-0.53-0.95-1.26-0.54c0.22-0.51-0.08-0.66-0.3-0.82c-0.22-0.16-0.41-0.3-0.33-0.62
			c-0.24,0.18-0.4,0.13-0.54-0.14c-0.12-0.25-0.2-0.49-0.48-0.64c-0.16-0.08-0.26-0.27-0.4-0.41c-0.02-0.02-0.08-0.01-0.11-0.02
			c0.07-0.32-0.21-0.42-0.38-0.59c-0.1-0.09-0.26-0.14-0.32-0.24c-0.2-0.36-0.64-0.29-0.89-0.54c-0.23-0.22-0.5-0.4-0.72-0.63
			c-0.07-0.07-0.03-0.23-0.05-0.38c-0.33-0.1-0.58-0.33-0.75-0.69c-0.07-0.15-0.28-0.23-0.43-0.35c-0.25-0.21-0.5-0.43-0.75-0.64
			c-0.12-0.1-0.23-0.24-0.37-0.29c-0.24-0.08-0.33-0.26-0.44-0.45c-0.07-0.12-0.16-0.23-0.26-0.38c0.02-0.03,0.06-0.1,0.14-0.25
			c-0.4-0.33-0.8-0.67-1.21-1.01c-0.31-0.26-0.63-0.51-0.94-0.77c-0.06-0.05-0.06-0.15-0.1-0.25c0,0-0.01,0-0.03-0.01
			c-0.27-0.14-0.61-0.21-0.78-0.43c-0.22-0.26-0.45-0.29-0.73-0.27c-0.18,0.01-0.36,0.05-0.45-0.18c-0.01-0.04-0.1-0.07-0.15-0.07
			c-0.55-0.07-0.84-0.52-1.23-0.83c-0.2-0.16-0.36-0.38-0.66-0.25c-0.13-0.2-0.26-0.39-0.38-0.58c-0.01-0.02-0.05-0.04-0.07-0.04
			c-0.28,0.01-0.51-0.07-0.72-0.28c-0.08-0.08-0.3,0-0.44-0.03c-0.08-0.01-0.16-0.09-0.21-0.16c-0.06-0.09-0.07-0.27-0.14-0.29
			c-0.16-0.05-0.38-0.09-0.52-0.02c-0.35,0.18-0.59-0.09-0.88-0.14c-0.17-0.03-0.34-0.08-0.5-0.12c-0.3-0.06-0.61-0.15-0.91-0.18
			c-0.39-0.04-0.78-0.04-1.17-0.06c-0.02,0-0.05,0-0.06-0.01c-0.24-0.31-0.56-0.16-0.87-0.17c-0.3-0.01-0.64-0.09-0.9-0.24
			c-0.53-0.3-1.12-0.34-1.7-0.42c-0.4-0.05-0.81,0.07-1.22,0.1c-0.25,0.02-0.5,0-0.75-0.01c-0.57-0.03-1.14-0.07-1.72-0.11
			c-0.07,0-0.14-0.02-0.24-0.04c0.05-0.07,0.09-0.13,0.17-0.23c-0.1,0.02-0.17,0.01-0.18,0.03c-0.21,0.4-0.59,0.29-0.93,0.34
			c-0.31,0.05-0.61,0.16-0.91,0.25c-0.03,0.01-0.05,0.03-0.08,0.03c-0.33,0.02-0.67,0.03-1,0.04c-0.09,0-0.18,0-0.27,0.02
			c-0.41,0.1-0.81,0.09-1.2-0.03c-0.02-0.01-0.05-0.01-0.06-0.01c-0.21,0.21-0.52,0.07-0.76,0.25c-0.16,0.12-0.42,0.13-0.63,0.19
			c-0.42,0.11-0.91-0.12-1.28,0.26c-0.07,0.07-0.25,0.03-0.37,0.06c-0.18,0.05-0.35,0.14-0.54,0.19c-0.15,0.04-0.31,0.07-0.46,0.06
			c-0.67-0.05-1.29,0.12-1.9,0.4c-0.08,0.04-0.19,0.02-0.28,0.04c-0.08,0.02-0.21,0.06-0.21,0.1c-0.01,0.26-0.21,0.27-0.38,0.31
			c-0.3,0.06-0.6,0.07-0.9,0.12c-0.09,0.02-0.17,0.1-0.26,0.13c-0.26,0.08-0.53,0.15-0.8,0.23c-0.23,0.07-0.45,0.16-0.67,0.22
			c-0.38,0.11-0.77,0.21-1.16,0.3c-0.29,0.07-0.61,0.07-0.86,0.21c-0.5,0.29-1.07,0.45-1.51,0.84c-0.03,0.03-0.07,0.05-0.11,0.05
			c-0.34-0.04-0.56,0.21-0.82,0.35c-0.05,0.03-0.13,0.08-0.16,0.07c-0.46-0.24-0.83,0.19-1.26,0.16c-0.06,0-0.15,0.02-0.18,0.06
			c-0.34,0.46-0.81,0.71-1.31,0.93c-0.12,0.06-0.21,0.19-0.33,0.25c-0.16,0.09-0.34,0.14-0.51,0.21c-0.17,0.07-0.41,0.09-0.51,0.21
			c-0.27,0.35-0.64,0.48-1.03,0.62c-0.24,0.09-0.48,0.19-0.69,0.33c-0.32,0.21-0.63,0.45-0.94,0.68c-0.01,0.01-0.01,0.01-0.02,0.02
			c-0.39,0.24-0.8,0.45-1.18,0.71c-0.47,0.32-0.92,0.69-1.38,1.03c-0.31,0.23-0.63,0.43-0.93,0.67c-0.37,0.29-0.71,0.61-1.07,0.91
			c-0.1,0.09-0.23,0.14-0.34,0.22c-0.34,0.26-0.67,0.53-1,0.8c-0.27,0.22-0.54,0.43-0.81,0.65c-0.08,0.07-0.15,0.16-0.23,0.24
			c-0.13,0.15-0.3,0.19-0.49,0.22c-0.26,0.05-0.41,0.4-0.33,0.71c-0.22-0.02-0.45-0.02-0.48,0.28c0,0.03-0.05,0.07-0.08,0.08
			c-0.38,0.16-0.52,0.53-0.74,0.83c-0.28,0.38-0.6,0.73-0.89,1.1c-0.22,0.28-0.44,0.57-0.66,0.85c-0.29,0.37-0.6,0.72-0.87,1.1
			c-0.19,0.27-0.32,0.58-0.51,0.85c-0.11,0.15-0.31,0.24-0.43,0.39c-0.24,0.3-0.42,0.65-0.69,0.92c-0.16,0.15-0.28,0.28-0.31,0.5
			c-0.01,0.03-0.16,0.07-0.16,0.07c-0.16-0.31-0.43-0.2-0.71-0.15c0.06-0.17,0.1-0.3,0.15-0.46c-0.19,0.11-0.35,0.2-0.47,0.27
			c-0.17-0.12-0.32-0.29-0.49-0.32c-0.16-0.03-0.34,0.1-0.57,0.11c0.09-0.08,0.18-0.21,0.29-0.22c0.29-0.04,0.48-0.12,0.37-0.46
			c-0.01-0.02,0.03-0.05,0.03-0.08c0-0.02,0-0.04-0.01-0.06c-0.2-0.16-0.53-0.25-0.35-0.63c0.08,0.02,0.16,0.04,0.23,0.06
			c-0.02-0.08-0.06-0.15-0.06-0.23c-0.02-0.13-0.02-0.26-0.02-0.39c0.1,0.02,0.19,0.04,0.29,0.04c0.23,0.01,0.47,0.04,0.7,0.01
			c0.09-0.01,0.18-0.18,0.2-0.29c0.02-0.09-0.05-0.23-0.13-0.29c-0.16-0.12-0.35-0.21-0.53-0.32c0.15-0.13,0.28-0.24,0.42-0.36
			c0.03-0.04,0.06-0.08,0.09-0.13c0.04,0.15,0.07,0.31,0.11,0.46c0.04-0.04,0.09-0.08,0.13-0.11c0.08-0.11,0.18-0.21,0.23-0.33
			c0.04-0.1,0.07-0.31,0.04-0.33c-0.37-0.19-0.07-0.26,0.04-0.4c0.14-0.18,0.25-0.39,0.34-0.6c0.03-0.06-0.04-0.16-0.07-0.25
			c0.05-0.02,0.1-0.08,0.14-0.07c0.31,0.06,0.47-0.07,0.6-0.34c0.06-0.12,0.15-0.32,0.37-0.27c0.02,0,0.06-0.02,0.07-0.04
			c0.21-0.32,0.43-0.64,0.6-0.97c0.12-0.22,0.13-0.26,0.36-0.22c0.15-0.27,0.28-0.53,0.44-0.76c0.04-0.06,0.18-0.04,0.31-0.07
			c0.08-0.2,0.13-0.46,0.26-0.67c0.12-0.19,0.31-0.35,0.49-0.5c0.2-0.17,0.42-0.31,0.61-0.5c0.09-0.09,0.08-0.25,0.15-0.36
			c0.2-0.33,0.61-0.33,0.89-0.54c0.16-0.12,0.3-0.27,0.48-0.37c0.41-0.23,0.53-0.78,1.04-0.9c0.18-0.04,0.33-0.25,0.49-0.37
			c0.22-0.16,0.43-0.32,0.66-0.46c0.08-0.05,0.21-0.02,0.3-0.06c0.42-0.15,0.57-0.58,0.88-0.86c0.35-0.31,0.81-0.47,1.1-0.85
			c0.11-0.14,0.34-0.18,0.51-0.27c0.1-0.05,0.18-0.12,0.3-0.2c0.17,0.09,0.33,0.05,0.51-0.13c0.33-0.33,0.71-0.6,1.05-0.91
			c0.08-0.07,0.1-0.21,0.16-0.34c0.51,0.2,0.82-0.17,1.12-0.46c0.35-0.34,0.78-0.5,1.19-0.72c0.42-0.24,0.94-0.25,1.33-0.63
			c0.36-0.35,0.81-0.67,1.27-0.82c0.36-0.12,0.7-0.25,1.01-0.44c0.41-0.25,0.9-0.18,1.33-0.35c0.17-0.07,0.37-0.19,0.45-0.35
			c0.09-0.17,0.2-0.15,0.34-0.17c0.29-0.04,0.63,0.01,0.87-0.13c0.38-0.22,0.78-0.17,1.16-0.26c0.29-0.07,0.56-0.26,0.84-0.4
			c0.07,0.04,0.15,0.09,0.26,0.15c0.04-0.11,0.07-0.2,0.1-0.28c0.76-0.14,1.52-0.27,2.18-0.73c0.13-0.09,0.38,0,0.57-0.02
			c0.11-0.01,0.21-0.06,0.31-0.09c0.11-0.03,0.25-0.13,0.32-0.09c0.18,0.1,0.27,0,0.4-0.08c0.2-0.13,0.42-0.22,0.61-0.35
			c0.11-0.07,0.18-0.2,0.31-0.35c0.02,0.01,0.11,0.05,0.19,0.08c0.14,0.05,0.28,0.13,0.4-0.04c0.02-0.03,0.1-0.06,0.13-0.05
			c0.45,0.17,0.77-0.21,1.17-0.26c0.26-0.03,0.37-0.26,0.46-0.53c0.06,0.15,0.12,0.3,0.2,0.48c0.34,0.07,0-0.51,0.36-0.42
			c0.04,0.14,0.1,0.27,0.34,0.15c0.22-0.11,0.45-0.21,0.69-0.25c0.18-0.03,0.38,0.03,0.57,0.06c0.08-0.18,0.16-0.38,0.27-0.55
			c0.04-0.06,0.17-0.08,0.27-0.08c0.2-0.01,0.41,0.02,0.61,0.01c0.08,0,0.19-0.06,0.22-0.12c0.15-0.3,0.38-0.19,0.61-0.18
			c0.23,0.01,0.47-0.07,0.74-0.11c0,0,0.02,0.06,0.04,0.13c0.22-0.06,0.44-0.12,0.67-0.19c0.13,0.2,0.52,0.37,0.77,0.32
			c0.35-0.07,0.56,0.01,0.8,0.36c0.51-0.38,1.01-0.78,1.54-1.12c0.17-0.11,0.44-0.05,0.65-0.11c0.44-0.12,0.8,0.16,1.21,0.18
			c0.21,0.01,0.4,0.02,0.51-0.21c0.02-0.05,0.11-0.07,0.15-0.09c0.06,0.13,0.11,0.25,0.18,0.43c-0.09,0.21-0.43-0.19-0.56,0.15
			c-0.08,0.24-0.19,0.42,0.07,0.59c0.12-0.08,0.24-0.16,0.36-0.24c0.04-0.03,0.12-0.06,0.14-0.04c0.22,0.21,0.36,0.04,0.55-0.19
			c-0.03,0.17-0.05,0.25-0.07,0.38c0.22-0.31,0.47-0.37,0.66-0.21c0.06-0.14,0.11-0.29,0.15-0.38c-0.34,0-0.72,0-1.09,0
			c0.03-0.23,0.28-0.33,0.55-0.19c0.22,0.12,0.38,0.08,0.54-0.08c0.03-0.03,0.09-0.04,0.13-0.04c0.12,0.01,0.23,0.04,0.35,0.04
			C50.5,10.75,50.63,10.81,50.65,11.01L50.65,11.01z M76.41,27.02c-0.21-0.2,0.38-0.46-0.08-0.62c0.09-0.07,0.15-0.13,0.24-0.2
			c-0.2-0.04-0.34-0.07-0.49-0.08c-0.06,0-0.13,0.06-0.2,0.09c0.03,0.05,0.06,0.12,0.1,0.16c0.04,0.04,0.1,0.04,0.15,0.06
			C76.11,26.86,76.12,26.89,76.41,27.02z M75.24,25.25c-0.03-0.02-0.06-0.05-0.08-0.07c-0.12,0.1-0.28,0.18-0.33,0.3
			c-0.04,0.09,0.07,0.25,0.14,0.36c0.01,0.03,0.11,0.01,0.17,0.01c-0.04-0.08-0.08-0.15-0.12-0.23c-0.01-0.02,0-0.04,0-0.02
			C75.1,25.47,75.17,25.36,75.24,25.25z M75.89,24.66c-0.04,0.01-0.08,0.01-0.12,0.02c0.01,0.22,0.03,0.44,0.05,0.7
			c0.07-0.05,0.22-0.11,0.22-0.15C76.01,25.04,75.94,24.85,75.89,24.66z M78.25,29.78c-0.02,0.03-0.04,0.05-0.07,0.08
			c0.11,0.04,0.27,0.15,0.33,0.12c0.19-0.13-0.01-0.22-0.08-0.32c-0.03-0.04-0.01-0.12-0.04-0.17c-0.04-0.06-0.11-0.1-0.18-0.16
			C78.22,29.51,78.23,29.65,78.25,29.78z M49.58,14.6c-0.15-0.28-0.34-0.27-0.56-0.21C49.12,14.7,49.34,14.59,49.58,14.6z
			 M76.94,31.93c0.05,0.02,0.1,0.05,0.15,0.07c0.05-0.09,0.11-0.17,0.13-0.27c0.01-0.02-0.13-0.08-0.19-0.12
			C77,31.72,76.97,31.82,76.94,31.93z M72.79,29.36c-0.04,0.04-0.07,0.09-0.11,0.13c0.09,0.09,0.18,0.18,0.27,0.26
			c0.03-0.04,0.11-0.11,0.1-0.12C72.96,29.54,72.87,29.46,72.79,29.36z"></path>
		<path d="M56.36,33.98c0.04-0.01,0.1-0.04,0.11-0.02c0.13,0.11,0.26,0.23,0.44,0.4c0.02-0.2,0.03-0.29,0.04-0.37
			c0.17,0.03,0.32,0.06,0.5,0.09c-0.09,0.1-0.2,0.16-0.21,0.24c-0.01,0.05,0.11,0.13,0.2,0.22c-0.03,0.39,0.16,0.59,0.74,0.75
			c0.17,0.05,0.34,0.07,0.5,0.1c0.12-0.15,0.32-0.3,0.37-0.48c0.05-0.17-0.07-0.37-0.12-0.57c0.47,0.03,0.6,0.25,0.34,0.57
			c-0.25,0.31-0.03,0.58-0.03,0.87c0.03,0.02,0.06,0.04,0.08,0.06c0.12-0.14,0.25-0.27,0.4-0.44c0,0.07,0,0.13,0.01,0.2
			c0.01,0.22-0.01,0.44,0.34,0.42c0.12-0.01,0.24,0.13,0.37,0.19c0.23,0.12,0.52,0.17,0.69,0.35c0.25,0.25,0.66,0.1,0.86,0.42
			c0.03-0.02,0.06-0.04,0.09-0.06c-0.05-0.11-0.1-0.22-0.16-0.36c0.03-0.02,0.1-0.07,0.28-0.2c-0.14-0.08-0.25-0.14-0.4-0.23
			c0.1-0.03,0.17-0.07,0.19-0.05c0.23,0.15,0.43,0.34,0.67,0.47c0.21,0.12,0.45,0.2,0.68,0.28c0.08,0.03,0.18,0.01,0.26,0
			c0.12-0.01,0.24-0.04,0.43-0.07c0.35,0.33,1.05,0.33,1.32-0.08c0.26,0.16,0.59,0.26,0.64,0.63c0-0.14,0-0.28,0-0.42
			c0.03-0.01,0.07-0.02,0.1-0.02c0.09,0.18,0.18,0.36,0.27,0.56c-0.05,0.05-0.19,0.14-0.2,0.25c-0.02,0.11,0.08,0.24,0.14,0.38
			c-0.1,0.16-0.24,0.18-0.41,0.06c-0.05-0.03-0.16-0.06-0.18-0.04c-0.04,0.06-0.05,0.14-0.05,0.14c0.17,0.12,0.3,0.18,0.39,0.27
			c0.11,0.11,0.17,0.11,0.25-0.03c0.04-0.07,0.12-0.18,0.17-0.18c0.1,0.02,0.23,0.08,0.29,0.16c0.11,0.16,0.16,0.35,0.39,0.39
			c0.05,0.01,0.08,0.18,0.08,0.27c0,0.07-0.06,0.14-0.1,0.24c0.13-0.01,0.23-0.02,0.32-0.01c0.37,0.03,0.42,0.12,0.3,0.46
			c-0.08,0.21-0.17,0.43,0.18,0.59c-0.03-0.09-0.06-0.14-0.07-0.19c0-0.11-0.01-0.22,0.03-0.32c0.01-0.02,0.17-0.02,0.24,0.01
			c0.29,0.11,0.45,0.35,0.6,0.65c-0.41-0.14-0.41-0.14-0.56,0.18c0.19,0.09,0.37,0.32,0.55-0.02c0.01-0.02,0.17,0.01,0.21,0.06
			c0.12,0.12,0.22,0.27,0.36,0.44c-0.13,0-0.23,0-0.34,0c0.02,0.1,0.04,0.18,0.07,0.35c-0.39-0.25-0.68-0.26-0.79,0.26
			c0.22,0.07,0.43,0.14,0.66,0.21c-0.63,0.65-0.63,0.8,0,1.21c-0.05,0.09-0.1,0.18-0.16,0.3c-0.37-0.28-0.38,0.22-0.53,0.25
			c-0.24-0.07-0.41-0.12-0.59-0.16c-0.05-0.01-0.12,0.02-0.16,0.05c-0.58,0.53-0.62,0.52-1.25,0.07c-0.18-0.13-0.43-0.14-0.65-0.21
			c0-0.39-0.03-0.43-0.34-0.38c0,0.24,0.17,0.3,0.35,0.37c-0.04,0.05-0.09,0.15-0.11,0.15c-0.2-0.05-0.45,0.1-0.59-0.16
			c-0.02-0.04-0.13-0.03-0.2-0.04c-0.15,0-0.39,0.15-0.34-0.2c0-0.02-0.1-0.05-0.15-0.08c-0.15-0.08-0.34-0.13-0.46-0.25
			c-0.36-0.38-0.74-0.73-1.24-0.9c-0.02-0.01-0.05-0.01-0.05-0.03c-0.17-0.43-0.69-0.44-0.93-0.79c-0.06-0.09-0.09-0.19-0.14-0.28
			c0.03-0.02,0.05-0.05,0.08-0.07c-0.37-0.2-0.79-0.34-1.08-0.62c-0.23-0.23-0.48-0.4-0.76-0.52c-0.54-0.22-1.06-0.47-1.5-0.87
			c-0.07-0.06-0.18-0.07-0.28-0.09c-0.15-0.03-0.31-0.03-0.45-0.09c-0.44-0.18-0.86-0.38-1.3-0.57c-0.02-0.01-0.04-0.02-0.06-0.02
			c-0.35,0.09-0.63-0.16-0.94-0.21c-0.26-0.04-0.45-0.15-0.47-0.39c-0.13-0.05-0.22-0.12-0.32-0.13c-0.57-0.02-1.06-0.29-1.59-0.48
			c-0.48-0.17-1-0.23-1.49-0.34c-0.08-0.02-0.15-0.05-0.22-0.09c-0.33-0.22-0.7-0.24-1.07-0.26c-0.18-0.01-0.35-0.11-0.52-0.14
			c-0.21-0.03-0.43-0.03-0.65-0.06c-0.22-0.02-0.44-0.06-0.66-0.09c-0.05-0.01-0.1-0.03-0.15-0.03c-0.99,0.08-1.96-0.06-2.94-0.21
			c-0.28-0.04-0.57-0.03-0.86-0.05c-0.18-0.02-0.39-0.03-0.27-0.36c-0.03-0.01-0.06-0.01-0.09-0.02c-0.12,0.07-0.28,0.12-0.34,0.22
			c-0.19,0.35-0.5,0.36-0.83,0.36c-0.36,0-0.7-0.02-1.06,0.09C41.3,35.96,41,35.9,40.71,35.9c-0.03,0-0.07-0.02-0.08,0
			c-0.52,0.36-1.15,0.2-1.71,0.36c-0.28,0.08-0.55,0.16-0.83,0.22c-0.58,0.13-1.16,0.25-1.73,0.39c-0.66,0.16-1.32,0.35-1.98,0.51
			c-0.34,0.08-0.7,0.09-1.05,0.18c-0.33,0.08-0.64,0.23-0.96,0.34c-0.06,0.02-0.13,0-0.2,0.02c-0.26,0.08-0.52,0.16-0.78,0.24
			c-0.13,0.04-0.26,0.1-0.38,0.15c-0.36,0.13-0.71,0.26-1.07,0.39c-0.47,0.17-0.95,0.34-1.42,0.52c-0.27,0.1-0.54,0.19-0.8,0.31
			c-0.66,0.31-1.31,0.63-1.96,0.94c-0.53,0.26-1.07,0.5-1.59,0.77c-0.34,0.18-0.66,0.4-0.99,0.6c-0.03,0.02-0.07,0.06-0.1,0.06
			c-0.38,0.05-0.61,0.33-0.9,0.54c-0.53,0.37-1.07,0.72-1.59,1.1c-0.3,0.21-0.56,0.47-0.84,0.71c-0.41,0.34-0.82,0.68-1.23,1.02
			c-0.05,0.04-0.12,0.08-0.16,0.14c-0.13,0.2-0.31,0.2-0.52,0.19c-0.13,0-0.26,0.07-0.39,0.12c-0.04,0.02-0.07,0.09-0.11,0.09
			c-0.32,0.05-0.5,0.2-0.39,0.6c-0.14-0.08-0.22-0.13-0.26-0.15c-0.3,0.05-0.55,0.1-0.88,0.15c-0.01-0.01-0.09-0.08-0.19-0.18
			c0.27-0.05,0.5-0.09,0.74-0.13c-0.17-0.5-0.17-0.5-0.65-0.45c-0.19,0.02-0.38,0-0.39-0.28c0-0.07-0.08-0.14-0.12-0.21
			c-0.07,0.05-0.16,0.08-0.2,0.15c-0.17,0.22-0.39,0.36-0.67,0.37c-0.07,0-0.19-0.11-0.21-0.19c-0.09-0.27-0.09-0.28-0.37-0.17
			c0.16-0.62,0.72-0.97,1-1.51c0.21,0.1,0.33-0.01,0.39-0.27c0.06-0.28,0.19-0.52,0.43-0.71c0.22-0.17,0.38-0.43,0.56-0.64
			c0.03-0.03,0.05-0.08,0.08-0.09c0.28-0.05,0.48-0.23,0.7-0.4c0.38-0.3,0.84-0.5,1.21-0.81c0.58-0.48,1.27-0.83,1.77-1.42
			c0.21-0.25,0.51-0.43,0.8-0.62c0.32-0.22,0.56-0.38,0.94-0.22c0.04,0.02,0.2-0.08,0.2-0.13c0.01-0.39,0.35-0.34,0.58-0.42
			c0.23-0.08,0.51-0.03,0.73-0.13c0.34-0.15,0.74-0.17,1-0.49c0.03-0.04,0.11-0.04,0.17-0.05c0.25-0.08,0.27-0.13,0.11-0.4
			c0.23,0.16,0.44,0.29,0.61-0.02c0.03-0.05,0.21-0.01,0.31-0.04c0.15-0.05,0.38-0.09,0.43-0.2c0.11-0.23,0.32-0.21,0.49-0.28
			c0.16-0.07,0.33-0.13,0.51-0.18c0.21-0.06,0.44-0.15,0.65-0.15c0.4,0.01,0.72-0.1,0.97-0.41c0.12-0.15,0.23-0.2,0.39-0.05
			c0.19,0.17,0.37,0.12,0.5-0.11c0.25-0.44,0.4-0.47,0.9-0.32c0.13,0.04,0.32-0.08,0.48-0.15c0.14-0.06,0.27-0.17,0.41-0.24
			c0.19-0.1,0.38-0.2,0.57-0.29c0.05-0.03,0.12-0.06,0.17-0.05c0.24,0.06,0.48,0.14,0.72,0.2c0.11,0.03,0.22,0.03,0.33,0.04
			c0.44,0.04,0.77-0.11,0.92-0.56c0.3,0.01,0.49-0.24,0.75-0.31c0.06-0.02,0.17,0.14,0.28,0.24c0.07-0.08,0.16-0.16,0.21-0.22
			c0.23,0.08,0.45,0.16,0.66,0.23c0.01-0.03,0.03-0.06,0.04-0.1c-0.08-0.06-0.17-0.12-0.25-0.17c0.22-0.33,0.22-0.32,0.53-0.08
			c0.1,0.08,0.2,0.14,0.31,0.21c0.02,0.01,0.07,0.02,0.08,0.01c0.17-0.23,0.37-0.25,0.65-0.23c0.22,0.01,0.44-0.19,0.67-0.27
			c0.15-0.05,0.32-0.03,0.48-0.04c0.13-0.01,0.36,0,0.36-0.03c0.03-0.16,0.14-0.37-0.13-0.45c-0.03-0.01-0.06-0.04-0.15-0.11
			c0.41-0.03,0.59,0.23,0.78,0.34c0.16-0.13,0.28-0.32,0.44-0.35c0.19-0.04,0.4,0.06,0.61,0.1c0.02,0.05,0.05,0.13,0.08,0.22
			c0.03,0,0.05,0,0.08-0.01c0.01-0.06,0.03-0.13,0.04-0.19c0.11-0.5,0.39-0.57,0.79-0.27c0.17,0.12,0.42,0.31,0.65,0.02
			c0.01-0.02,0.06-0.04,0.07-0.03c0.28,0.19,0.25-0.11,0.35-0.25c0.06,0.05,0.14,0.07,0.16,0.12c0.11,0.25,0.27,0.19,0.44,0.09
			c0.16-0.09,0.29-0.2,0.51-0.09c0.11,0.06,0.29,0.01,0.5,0.01c-0.11-0.09-0.18-0.14-0.24-0.19c0.46,0.16,0.81-0.1,1.21-0.24
			c0.24-0.09,0.56,0.04,0.85,0.05c0.13,0,0.27-0.04,0.46-0.08c0.03,0.04,0.1,0.14,0.17,0.25c0.31-0.05,0.32-0.09,0.07-0.42
			c0.31,0.05,0.58,0.08,0.87,0.13c0,0,0.01-0.05,0.02-0.09c0.39,0.1,0.79,0.17,1.17,0.31c0.12,0.04,0.17,0.27,0.26,0.44
			c0.07-0.07,0.13-0.12,0.19-0.18c0.12,0.25,0.35,0.32,0.6,0.15c0.33-0.23,0.75-0.11,0.94,0.04c0.34,0.27,0.51,0.07,0.68-0.09
			c0.21-0.21,0.38-0.15,0.57-0.02c0.12,0.08,0.2,0.22,0.33,0.27c0.09,0.04,0.26,0.01,0.33-0.06c0.33-0.31,0.51-0.32,0.85-0.07
			c0.1,0.07,0.28,0.07,0.42,0.05c0.15-0.01,0.31-0.07,0.5-0.12c-0.25,0.56,0.49,0.53,0.51,1c-0.17-0.07-0.31-0.12-0.44-0.17
			c-0.12,0.19-0.04,0.36,0.18,0.38c0.24,0.02,0.48,0.03,0.74,0.05c0.21-0.34,0.37-0.4,0.81-0.28c0.07,0.02,0.16-0.01,0.23,0.01
			C56.18,33.71,56.37,33.74,56.36,33.98c-0.09,0.03-0.18,0.04-0.29,0.06c0-0.07,0-0.12,0-0.25c-0.13,0.07-0.25,0.11-0.33,0.18
			c-0.03,0.03-0.03,0.17-0.01,0.18c0.12,0.07,0.27,0.17,0.37,0.13C56.21,34.26,56.27,34.09,56.36,33.98z M63.75,38.6
			c0,0.14,0,0.28,0,0.41c0.48,0.02,0.48,0.02,0.95,0.41c0.09-0.06,0.19-0.12,0.28-0.19c0-0.03,0-0.07,0.01-0.1
			c-0.16-0.03-0.32-0.06-0.44-0.08c-0.1-0.16-0.16-0.37-0.29-0.44C64.14,38.55,63.93,38.6,63.75,38.6z M59.58,36.41
			c0.18,0,0.32,0,0.52,0c-0.31-0.29-0.53-0.32-0.73-0.13c-0.05,0.05-0.05,0.15-0.08,0.22c0.08-0.01,0.17-0.02,0.25-0.05
			C59.57,36.45,59.58,36.4,59.58,36.41z"></path>
		<path d="M59.41,52.98c0.39,0.44,0.77,0.88,1.16,1.32c0.02,0.02,0.04,0.05,0.04,0.08c-0.06,0.43-0.12,0.85-0.19,1.27
			c-0.02,0.14-0.1,0.26-0.16,0.42c-0.19-0.02-0.28,0.1-0.3,0.31c-0.01,0.11,0.02,0.28-0.04,0.31c-0.15,0.08-0.33,0.13-0.5,0.15
			c-0.17,0.03-0.34,0.02-0.52,0.02c-0.08,0-0.16,0.02-0.24,0c-0.95-0.23-1.92-0.41-2.85-0.7c-0.67-0.21-1.28-0.59-1.92-0.86
			c-0.48-0.21-0.99-0.37-1.48-0.57c-0.14-0.06-0.27-0.15-0.48-0.27c-0.3,0.11-0.68,0.03-1.06-0.09c-0.44-0.14-0.91-0.21-1.35-0.36
			c-0.26-0.09-0.5-0.14-0.79-0.08c-0.02-0.05-0.04-0.1-0.06-0.15c-0.1-0.27-0.24-0.32-0.48-0.16c-0.16,0.11-0.29,0.25-0.45,0.38
			c-0.01-0.02-0.03-0.07-0.07-0.11c-0.03-0.04-0.07-0.06-0.14-0.11c0,0.11,0,0.18,0,0.24c-0.18-0.07-0.39-0.23-0.48-0.18
			c-0.39,0.24-0.72,0.02-1.08-0.06c-0.06-0.02-0.16,0.05-0.22,0.1c-0.22,0.2-0.32,0.21-0.56,0.05c-0.1,0.06-0.21,0.2-0.28,0.18
			c-0.48-0.14-0.92,0.21-1.39,0.07c-0.17-0.05-0.35-0.06-0.52-0.12c-0.31-0.12-0.6-0.08-0.89,0.06c-0.1,0.05-0.22,0.07-0.33,0.09
			c-0.3,0.05-0.6,0.08-0.9,0.14c-0.36,0.07-0.72,0.18-1.09,0.25c-0.24,0.05-0.49,0.01-0.67,0.27c-0.06,0.09-0.29,0.09-0.44,0.08
			c-0.3-0.02-0.6-0.08-0.9-0.09c-0.33-0.02-0.67-0.04-0.99,0.01c-0.29,0.04-0.56,0.16-0.83,0.28c-0.07,0.03-0.07,0.2-0.13,0.28
			c-0.32,0.42-0.84,0.54-1.29,0.75c-0.1,0.05-0.26-0.04-0.4-0.03c-0.06,0-0.12,0.06-0.2,0.11c-0.13-0.08-0.2-0.2-0.4,0.02
			c-0.2,0.23-0.59,0.29-0.89,0.42c-0.09,0.04-0.2,0.05-0.26,0.11c-0.47,0.48-1.07,0.75-1.67,1c-0.19,0.08-0.41,0.08-0.58,0.18
			c-0.18,0.1-0.3,0.3-0.48,0.41c-0.39,0.26-0.74,0.56-1.24,0.65c-0.26,0.05-0.47,0.29-0.71,0.44c-0.1,0.06-0.22,0.09-0.35,0.14
			c0.03-0.63-0.19-0.77-0.76-0.56c-0.1,0.04-0.24-0.03-0.37-0.04c-0.07,0-0.19-0.01-0.21,0.03c-0.15,0.28-0.46,0.42-0.77,0.33
			c-0.38-0.11-0.38-0.11-0.43-0.31c-0.14-0.03-0.28-0.06-0.42-0.09c0.29-0.08,0.4-0.27,0.28-0.54c-0.22-0.5-0.19-0.53,0.22-0.89
			c0.25-0.21,0.42-0.53,0.68-0.73c0.4-0.3,0.84-0.54,1.26-0.81c0.22-0.14,0.43-0.31,0.65-0.45c0.47-0.28,0.95-0.56,1.43-0.82
			c0.42-0.22,0.87-0.4,1.3-0.62c0.32-0.16,0.62-0.35,0.94-0.53c0.18,0.24,0.21,0.24,0.4-0.02c0.16-0.22,0.72-0.38,0.91-0.31
			c0.23-0.09,0.38-0.16,0.54-0.22c0.03-0.01,0.06-0.02,0.08-0.04c0.36-0.47,0.94-0.48,1.43-0.65c0.05-0.02,0.11-0.02,0.13-0.06
			c0.19-0.34,0.54-0.24,0.83-0.32c0.3-0.08,0.59-0.14,0.9,0.03c0.04,0.02,0.2-0.17,0.29-0.28c0.11-0.13,0.2-0.28,0.33-0.44
			c0.06,0.2,0.09,0.31,0.12,0.41c0.1-0.04,0.19-0.08,0.29-0.12c0.11-0.04,0.22-0.1,0.33-0.11c0.51-0.05,1.02-0.02,1.52,0.12
			c0.22,0.06,0.93-0.21,1.1-0.35c0.19-0.16,0.42-0.33,0.66-0.38c0.42-0.08,0.44-0.08,0.23-0.46c-0.01-0.02-0.01-0.05-0.02-0.07
			c0.18,0.06,0.35,0.12,0.56,0.19c-0.02,0.04-0.06,0.09-0.08,0.14c-0.03,0.06-0.08,0.17-0.07,0.18c0.08,0.05,0.17,0.07,0.26,0.11
			c0.02-0.07,0.06-0.13,0.06-0.2c0.01-0.18,0-0.35,0-0.53c0.04,0,0.09,0,0.13,0c0,0.15,0,0.3,0,0.44c0.02,0,0.05,0.01,0.07,0.01
			c0.05-0.08,0.1-0.16,0.17-0.27c0.03,0.08,0.05,0.14,0.08,0.22c0.06-0.01,0.13-0.02,0.2-0.04c0.01,0.13,0.02,0.24,0.03,0.35
			c0.28-0.03,0.52-0.05,0.72-0.07c0.04-0.11,0.07-0.21,0.1-0.3c0.1,0.11,0.18,0.19,0.26,0.28c0.15-0.17,0.29-0.35,0.41-0.49
			c0.01,0.06,0.04,0.19,0.09,0.42c0.22-0.16,0.39-0.28,0.57-0.42c0.02,0.02,0.07,0.11,0.13,0.13c0.07,0.02,0.2,0.02,0.24-0.03
			c0.21-0.25,0.58-0.3,0.82-0.1c0.04,0.03,0.11,0.03,0.16,0.04c0.08,0.01,0.17,0,0.24,0.03c0.35,0.15,0.72,0.09,0.97-0.19
			c0.06,0.06,0.11,0.13,0.17,0.19c0.58-0.23,0.52-0.2,0.87,0.22c0.04,0.05,0.14,0.07,0.26,0.13c-0.02-0.14-0.05-0.22-0.04-0.29
			c0.01-0.08,0.03-0.2,0.08-0.23c0.04-0.03,0.16,0.02,0.23,0.05c0.17,0.08,0.31,0.1,0.53,0.06c0.47-0.1,0.97-0.06,1.45-0.07
			c0.03,0,0.08,0.03,0.1,0.05c0.16,0.17,0.34,0.23,0.56,0.12c0.05-0.02,0.13,0.01,0.21,0.02c-0.05,0.29,0.02,0.44,0.35,0.37
			c0.1-0.02,0.22,0.06,0.34,0.08c0.11,0.02,0.25,0.06,0.34,0.01c0.07-0.04,0.09-0.19,0.15-0.33c0.41-0.18,0.78,0.01,1.12,0.31
			c0.32,0.28,0.66,0.43,1.09,0.53c1.38,0.31,2.77,0.61,4.01,1.34C59.29,52.86,59.35,52.93,59.41,52.98
			c-0.11,0.12-0.22,0.22-0.34,0.33c0.13,0.07,0.27,0.14,0.4,0.21c0.01,0.01,0.03-0.01,0,0C59.45,53.34,59.43,53.16,59.41,52.98z"></path>
		<path d="M50.95,66.79c0.21,0.13,0.38,0.23,0.56,0.34c-0.02,0.02-0.07,0.08-0.15,0.18c0.12-0.02,0.2-0.03,0.31-0.04
			c0.02,0.15,0.04,0.29,0.05,0.44c-0.42-0.13-0.44-0.11-0.4,0.33c0.01,0.11-0.04,0.23-0.04,0.35c0.02,0.24-0.09,0.49,0.13,0.73
			c0.08,0.08-0.02,0.32-0.03,0.48c-0.36,0.07-0.44,0.24-0.48,0.56c-0.02,0.23-0.18,0.44-0.28,0.67c-0.12-0.02-0.22-0.03-0.28-0.04
			c-0.17,0.38-0.34,0.76-0.5,1.14c-0.03-0.01-0.05-0.02-0.08-0.04c0,0.12,0,0.24,0,0.4c-0.27-0.11-0.5-0.2-0.73-0.29
			c-0.15-0.06-0.25-0.02-0.22,0.15c0.01,0.1,0.07,0.2,0.1,0.26c-0.14,0.09-0.37,0.15-0.43,0.28c-0.05,0.13,0.07,0.34,0.13,0.55
			c-0.03,0.03-0.03,0.03-0.27-0.2c-0.11-0.11-0.23-0.22-0.34-0.32c-0.17,0.25-0.33,0.5-0.52,0.78c-0.02,0-0.12,0.01-0.2,0.01
			c-0.07-0.08-0.14-0.16-0.21-0.24c-0.04,0.1-0.07,0.22-0.13,0.31c-0.09,0.14-0.18,0.31-0.31,0.38c-0.37,0.19-0.76,0.35-1.16,0.47
			c-0.21,0.06-0.46,0-0.69,0c-0.2,0-0.37,0.09-0.5,0.24c-0.05,0.06-0.15,0.12-0.21,0.11c-0.31-0.09-0.61,0.01-0.91,0.03
			c-0.23,0.02-0.48,0.03-0.7-0.04c-0.1-0.03-0.14-0.25-0.22-0.42c-0.21,0.21-0.44,0.44-0.69,0.69c-0.04-0.37-0.31-0.55-0.62-0.49
			c-0.07-0.08-0.14-0.14-0.2-0.22c-0.05-0.06-0.12-0.15-0.1-0.21c0.05-0.22-0.04-0.33-0.23-0.38c-0.28-0.06-0.42-0.22-0.46-0.5
			c-0.01-0.04-0.06-0.07-0.11-0.14c-0.03,0.11-0.05,0.19-0.07,0.26c-0.11,0.02-0.37-0.29-0.39-0.41c-0.03-0.15-0.04-0.34-0.13-0.44
			c-0.15-0.17-0.43-0.07-0.52,0.15c-0.06,0.13-0.15,0.25-0.23,0.38c-0.19-0.17-0.32-0.29-0.47-0.43c0.4-0.03,0.31-0.31,0.31-0.55
			c0-0.12,0.06-0.23,0.09-0.35c0.1,0.03,0.2,0.06,0.29,0.11c0.14,0.07,0.23,0.07,0.26-0.11c0.02-0.12,0.06-0.23,0.05-0.35
			c0-0.08-0.07-0.16-0.11-0.23c-0.07,0.06-0.16,0.1-0.22,0.17c-0.05,0.07-0.07,0.16-0.13,0.28c-0.15-0.38,0-0.52,0.59-0.67
			c0.14,0.08,0.22,0.12,0.3,0.17c0.02-0.11,0.03-0.22,0.05-0.33c0.01-0.08-0.01-0.19,0.03-0.24c0.28-0.33,0.58-0.64,0.88-0.95
			c0.15-0.16,0.32-0.29,0.24-0.58c-0.07-0.24,0.16-0.45,0.42-0.5c0.14-0.03,0.26-0.12,0.41-0.18c-0.09-0.07-0.15-0.12-0.29-0.23
			c0.21-0.02,0.35-0.06,0.48-0.05c0.27,0.01,0.51-0.29,0.42-0.54c-0.07-0.19-0.18-0.27-0.39-0.08c0.06-0.32,0.26-0.3,0.5-0.24
			c-0.05-0.16-0.09-0.28-0.12-0.39c0.21-0.17,0.33,0.44,0.56,0.02c-0.05-0.04-0.11-0.08-0.14-0.13c-0.11-0.15-0.02-0.32,0.17-0.36
			c0.12-0.03,0.24-0.1,0.34-0.18c0.31-0.23,0.6-0.43,1.03-0.38c0.27,0.03,0.56-0.09,0.83-0.19c0.08-0.03,0.11-0.21,0.17-0.35
			c0.07,0,0.16,0,0.28,0c0-0.26,0.18-0.32,0.38-0.32c0.28,0,0.47-0.07,0.64-0.33c0.1-0.16,0.36-0.21,0.55-0.3
			c0.15-0.07,0.31-0.14,0.47-0.17c0.1-0.02,0.21,0.03,0.31,0c0.23-0.01,0.46-0.01,0.69-0.03c0.6-0.07,1,0.3,1.43,0.61
			c0.04,0.03,0.1,0.1,0.09,0.15c-0.04,0.37,0.18,0.35,0.44,0.33c0.29-0.02,0.25,0.27,0.32,0.42c0.07,0.15,0.06,0.32,0.3,0.3
			c0.05,0,0.14,0.1,0.15,0.16C51.15,66.26,51.26,66.52,50.95,66.79z M43.42,67.17c0.28-0.17,0.46-0.32,0.21-0.67
			c-0.12,0.13-0.25,0.24-0.31,0.37C43.29,66.93,43.38,67.05,43.42,67.17z"></path>
	</g>
</g>
</svg>