<svg version="1.1" xmlns="http://www.w3.org/2000/svg" xmlns:xlink="http://www.w3.org/1999/xlink" x="0px" y="0px" viewBox="0 0 149.22 149.22" style="enable-background:new 0 0 149.22 149.22;" xml:space="preserve">
<g id="Arrière-plan_xA0_Image_1_">
</g>
<g id="Calque_1_xA0_Image_1_">
	<g>
		<path d="M61.72,125.39c0.15,0.47,0.27,0.54,0.71,0.49c0.15-0.02,0.3-0.03,0.55-0.06c-0.14-0.07-0.18-0.09-0.23-0.11
			c-0.05-0.02-0.1-0.05-0.19-0.08c0.12-0.27,0.24-0.42,0.59-0.31c0.31,0.09,0.67,0.06,1,0.08c0.26-0.35,0.51-0.71,0.81-1.11
			c0.07,0,0.21-0.01,0.36-0.02c0.06-0.24,0.12-0.47,0.19-0.76c-0.07-0.12-0.42,0.04-0.39-0.27c0-0.04-0.08-0.12-0.09-0.11
			c-0.25,0.11-0.3-0.07-0.38-0.24c-0.1-0.22-0.26-0.31-0.52-0.27c-0.18,0.03-0.38-0.06-0.7-0.13c-0.02,0.03-0.08,0.15-0.15,0.26
			c-0.36-0.09-0.72-0.29-1.04-0.24c-0.47,0.08-0.92,0.15-1.36-0.06c-0.26,0.18-0.49,0-0.74-0.04c-0.45-0.08-0.9-0.02-1.2,0.1
			c-0.26-0.09-0.42-0.15-0.66-0.24c0-0.01-0.05-0.12-0.12-0.25c-0.11,0.06-0.21,0.11-0.34,0.17c-0.32-0.58-0.94-0.5-1.46-0.56
			c-0.84-0.09-1.71,0-2.51-0.39c-0.1-0.05-0.24-0.01-0.35-0.03c-0.21-0.03-0.41-0.07-0.62-0.11c-0.14-0.02-0.3-0.11-0.41-0.07
			c-0.34,0.13-0.57-0.07-0.84-0.23c-0.09,0.21-0.18,0.4-0.26,0.59c-0.62-0.14-1.25-0.16-1.73-0.63c0.33-0.02,0.64-0.04,0.95-0.06
			c0.01-0.05,0.01-0.09,0.02-0.14c-0.43-0.13-0.86-0.29-1.3-0.37c-0.14-0.03-0.32,0.16-0.59,0.31c-0.19-0.12-0.48-0.3-0.84-0.51
			c-0.36,0.18-0.8-0.09-1.25-0.08c-0.07,0-0.15-0.05-0.22-0.09c-0.42-0.2-0.44-0.28-0.14-0.78c-0.18,0.06-0.3,0.09-0.41,0.14
			c-0.11,0.05-0.21,0.12-0.23,0.13c-0.47-0.2-0.88-0.39-1.3-0.54c-0.4-0.15-0.77-0.43-1.23-0.39c-0.08,0.01-0.18-0.09-0.25-0.15
			c-0.29-0.23-0.56-0.49-0.87-0.68c-0.17-0.11-0.41-0.11-0.64-0.16c0.04-0.07,0.08-0.13,0.12-0.21c-0.27-0.28-0.56-0.28-0.88,0.01
			c-0.16-0.18-0.29-0.34-0.43-0.49c-0.06-0.06-0.15-0.08-0.22-0.11c-0.09-0.04-0.23-0.05-0.25-0.1c-0.11-0.32-0.36-0.3-0.62-0.35
			c-0.15-0.02-0.28-0.21-0.47-0.36c-0.18,0.01-0.44,0.02-0.7,0.03c-0.02-0.25,0.05-0.55-0.07-0.68c-0.11-0.12-0.42-0.07-0.67-0.09
			c0.11-0.15,0.33-0.24,0.17-0.48c-0.24-0.37-0.56-0.15-0.91-0.24c0.04,0.25,0.07,0.41,0.09,0.57c-0.02,0.01-0.05,0.02-0.07,0.02
			c-0.11-0.26-0.22-0.52-0.34-0.81c0.14-0.02,0.25-0.03,0.41-0.04c-0.1-0.44-0.31-0.83-0.65-1.09c-0.3-0.23-0.5-0.53-0.7-0.84
			c-0.09-0.14-0.18-0.28-0.28-0.44c0.1-0.11,0.2-0.22,0.33-0.38c-0.65-0.29-0.53-0.95-0.75-1.44c-0.26-0.59-0.33-0.73-0.91-0.83
			c-0.41-0.07-0.81-0.2-1.22-0.27c-0.33-0.06-0.67-0.11-1-0.09c-0.62,0.05-1.16-0.11-1.55-0.59c-0.25-0.31-0.59-0.34-0.91-0.37
			c-0.97-0.08-1.86-0.48-2.78-0.74c-0.12-0.03-0.19-0.2-0.31-0.27c-0.32-0.22-0.66-0.43-0.98-0.65c-0.11-0.07-0.21-0.17-0.32-0.24
			c-0.11-0.07-0.24-0.19-0.35-0.18c-0.51,0.04-0.93-0.17-1.3-0.46c-0.29-0.22-0.52-0.06-0.82,0.07c-0.28-0.98-1.08-1.4-1.9-1.9
			c-0.01,0.13-0.01,0.2-0.03,0.27c-0.08,0.38-0.37,0.49-0.63,0.23c-0.22-0.22-0.29-0.59-0.76-0.56c-0.28,0.02-0.57-0.17-0.85-0.26
			c0.18-0.32,0.02-0.66-0.07-1.02c-0.4,0.21-0.4,0.21-0.54,0.6c-0.4,0-0.56-0.64-1.11-0.33c0.08-0.15,0.13-0.23,0.16-0.3
			c-0.32-0.33-0.64-0.65-0.96-0.96c-0.05-0.05-0.15-0.11-0.21-0.1c-0.39,0.11-0.46-0.19-0.56-0.46c-0.73,0.35-1.02-0.45-1.46-0.51
			c-0.31-0.44-0.52-0.86-0.84-1.15c-0.25-0.22-0.41-0.47-0.57-0.74c-0.29-0.54-0.6-1.07-0.88-1.61c-0.12-0.23-0.06-0.75,0.12-1.08
			c0.26,0.35,0.55,0.65,0.25,1.15c0.15,0.04,0.25,0.08,0.36,0.11c0.07,0.54,0.12,0.59,0.7,0.71c-0.17,0.16-0.34,0.31-0.64,0.26
			c0.35,0.31,0.7,0.62,1.05,0.93c0.19-0.21,0.19-0.21,0.11-0.34c-0.18-0.28-0.36-0.56-0.54-0.84c-0.08-0.3-0.15-0.6-0.25-0.89
			c-0.09-0.25-0.21-0.5-0.35-0.73c-0.14-0.23-0.32-0.44-0.48-0.66c-0.05-0.06-0.13-0.12-0.13-0.18c-0.02-0.32-0.18-0.33-0.44-0.28
			c-0.34,0.07-0.56-0.06-0.58-0.33c-0.03-0.27,0.04-0.51,0.42-0.56c0.06,0.16,0.11,0.32,0.16,0.47c0.04,0,0.08,0,0.12,0
			c0.04-0.19,0.08-0.39,0.12-0.59c-0.23-0.09-0.44-0.21-0.66-0.24c-0.2-0.03-0.42,0.03-0.73,0.05c0.11-0.26,0.21-0.49,0.34-0.78
			c-0.17-0.18-0.38-0.38-0.58-0.59c0,0,0.01,0.02,0.01,0.02c-0.14-0.23-0.28-0.46-0.45-0.73c0.02-0.1,0.03-0.29,0.09-0.45
			c0.11-0.3,0.09-0.57-0.07-0.85c-0.11-0.2-0.24-0.48,0.23-0.45c0.16,0.01,0.35-0.5,0.32-0.72c-0.02-0.11-0.03-0.22-0.01-0.33
			c0.08-0.43,0.18-0.86,0.3-1.43c-0.31,0.13-0.5,0.21-0.75,0.32c0.06-0.12,0.08-0.25,0.13-0.26c0.54-0.15,0.66-0.66,0.85-1.07
			c0.11-0.24,0.33-0.53,0.06-0.83c-0.03-0.03,0.03-0.14,0.06-0.21c0.28-0.65,0.24-0.93-0.23-1.45c0.14-0.34,0.27-0.68,0.42-1.02
			c0.1-0.22,0.22-0.42,0.53-0.38c0.24,0.03,0.35-0.15,0.45-0.37c0.13-0.3,0.16-0.29,0.58-0.19c0.3-0.46,0.6-0.92,0.93-1.43
			c0.09,0.13,0.15,0.22,0.21,0.3c0.04-0.02,0.09-0.04,0.1-0.06c0.26-0.64,1.06-0.99,1-1.83c-0.17-0.04-0.32-0.08-0.49-0.12
			c0.04-0.06,0.07-0.14,0.1-0.14c0.13,0,0.26,0.01,0.4,0.02c0.13,0.01,0.26,0.02,0.37,0.02c0.04-0.08,0.07-0.12,0.06-0.16
			c-0.17-1-0.16-1.02,0.89-1.45c0.33,0.25-0.08,0.83,0.43,1c0.41-0.51,0.41-0.51,0.72-0.14c0.09-0.1,0.24-0.19,0.26-0.3
			c0.07-0.43,0.41-0.57,0.73-0.71c0.59-0.26,0.68-0.4,0.52-1.01c0.36,0,0.72,0.01,0.92-0.38c0.03-0.05,0.18-0.04,0.28-0.05
			c0.39-0.05,0.39-0.05,0.44-0.55c-0.19-0.02-0.38-0.04-0.56-0.07c0,0,0.01,0.02,0.01,0.02c0.14-0.45,0.37-0.81,0.83-1.03
			c0.33-0.15,0.63-0.39,1.01-0.5c-0.25,0.22-0.5,0.44-0.81,0.71c0.3,0.17,0.57,0.31,0.82,0.46c0.36-0.24,0.48-0.58,0.63-0.93
			c0.2-0.48,0.18-1.15,0.93-1.3c0.08,0.12,0.16,0.26,0.25,0.4c0.05-0.03,0.12-0.05,0.12-0.06c-0.1-0.56,0.43-0.64,0.71-0.74
			c0.29-0.11,0.53-0.32,0.79-0.4c0.27,0.2,0.53,0.38,0.71,0.52c0.6-0.17,1.12-0.32,1.64-0.48c0.33-0.1,0.65-0.24,0.99-0.32
			c0.15-0.04,0.32,0.01,0.57,0.03c0.01-0.01,0.13-0.14,0.25-0.14c0.15,0,0.3,0.1,0.45,0.15c0.12-0.1,0.24-0.27,0.39-0.3
			c0.12-0.03,0.28,0.1,0.43,0.15c0.15-0.22,0.3-0.46,0.46-0.69c0.23,0.12,0.41,0.23,0.6,0.3c0.13,0.05,0.29,0.08,0.43,0.06
			c0.31-0.06,0.61-0.16,0.96-0.25c0.1-0.59,0.23-1.21,0.3-1.83c0.03-0.28-0.05-0.57-0.11-0.85c-0.09-0.43-0.09-0.86-0.01-1.3
			c-0.33-0.24-0.03-0.6-0.16-0.86c-0.13-0.26-0.34-0.49-0.56-0.79c0.21-0.14,0.4-0.27,0.59-0.39c0-0.02,0.01-0.07,0-0.1
			c-0.23-0.45-0.35-0.87,0.16-1.24c0.07-0.05,0.05-0.32-0.02-0.43c-0.23-0.37-0.49-0.71-0.76-1.08c-0.13,0.07-0.22,0.13-0.3,0.18
			c-0.03-0.02-0.06-0.03-0.06-0.05c-0.06-0.38-0.28-0.7-0.43-1.05c-0.13-0.32,0.01-0.77-0.44-0.95c-0.03-0.01-0.02-0.11-0.03-0.16
			c-0.14-0.62-0.22-1.24-0.07-1.88c0.12-0.49,0.19-1,0.21-1.51c0.01-0.51,0.29-0.9,0.46-1.34c0.05-0.14,0.27-0.23,0.43-0.3
			c0.36-0.17,0.52-0.5,0.45-0.83c-0.17-0.81-0.02-1.51,0.53-2.13c0.07-0.07,0.15-0.16,0.16-0.25c0.14-0.94,0.92-1.46,1.42-2.16
			c0.11-0.15,0.32-0.23,0.49-0.33c0.06-0.04,0.19-0.04,0.21-0.09c0.11-0.36,0.37-0.33,0.68-0.23c-0.06-0.68,0.16-1.15,0.72-1.5
			c0.28-0.18,0.44-0.55,0.7-0.76c0.35-0.28,0.74-0.52,1.14-0.74c0.11-0.06,0.3,0.03,0.48,0.05c0.09-0.11,0.21-0.23,0.34-0.38
			c0.11,0.12,0.19,0.21,0.29,0.33c0.14-0.32-0.05-0.69,0.33-0.88c0.4-0.21,0.49-0.24,0.86,0.03c0.17-0.15,0.34-0.31,0.54-0.49
			c-0.06-0.12-0.12-0.24-0.17-0.35c0.27-0.45,0.42-1.06,1.21-0.87c0.01,0.03,0.05,0.1,0.06,0.17c0.03,0.18,0.09,0.32,0.29,0.32
			c0.17,0,0.21-0.11,0.24-0.28c0.02-0.09,0.19-0.2,0.3-0.2c0.15-0.01,0.3,0.01,0.31-0.17c0-0.09-0.09-0.2-0.17-0.28
			c-0.07-0.08-0.17-0.14-0.22-0.32c0.11,0.02,0.24,0.01,0.33,0.07c0.11,0.07,0.18,0.21,0.29,0.28c0.35,0.21,0.54,0.14,0.57-0.26
			c0.03-0.35,0.14-0.6,0.49-0.73c0.28-0.1,0.53-0.35,0.86-0.11c0.05,0.04,0.18-0.02,0.31-0.04c-0.07-0.2-0.12-0.36-0.19-0.58
			c0.15-0.05,0.29-0.09,0.46-0.14c0.04,0.21,0.06,0.36,0.1,0.59c0.12-0.21,0.21-0.36,0.32-0.56c0.1,0.11,0.19,0.21,0.38,0.41
			c-0.03-0.29-0.04-0.45-0.06-0.62c0.66-0.29,1.32-0.61,1.99-0.88c0.48-0.19,0.55-0.16,0.98,0.17c0.17-0.08,0.35-0.16,0.54-0.24
			c-0.04-0.18-0.08-0.39-0.13-0.61c0.15-0.07,0.28-0.12,0.39-0.19c0.39-0.24,0.39-0.24,0.73,0.11c0.05-0.16,0.09-0.3,0.15-0.48
			c0.38,0.17,0.73,0.1,1.09-0.12c0.13-0.08,0.39-0.02,0.57,0.05c0.41,0.15,0.69,0.03,0.99-0.28c0.27-0.28,0.61-0.5,1.07-0.55
			c0,0.17,0,0.32,0,0.44c0.24,0.16,0.37,0.03,0.49-0.41c0.12,0,0.32,0.04,0.35-0.01c0.31-0.6,0.84-0.49,1.35-0.47
			c0.23,0.01,0.46,0,0.72,0c0.26,0.39,0.6,0.44,1.02,0.18c0.21-0.13,0.46-0.3,0.68-0.29c0.39,0.01,0.54-0.26,0.77-0.46
			c0.11-0.1,0.26-0.16,0.41-0.25c0.1,0.14,0.18,0.25,0.26,0.38c0.52-0.12,1.02-0.24,1.29-0.75c0.36,0.1,0.68,0.2,1.03,0.3
			c-0.02-0.14-0.04-0.25-0.06-0.38c0.35-0.08,0.66-0.16,0.95,0.13c0.12,0.12,0.28,0.1,0.39-0.07c0.12-0.18,0.26-0.36,0.42-0.58
			c0.3,0.29,0.57,0.51,0.97,0.36c0.16-0.06,0.34-0.07,0.29-0.28c-0.05-0.22-0.19-0.21-0.37-0.11c-0.05,0.03-0.14,0-0.25,0
			c0.34-0.49,0.77,0.05,1.1-0.22c0.18,0.36,0.45,0.54,0.8,0.44c0.29-0.08,0.74-0.04,0.71-0.57c0.44,0.08,0.85,0.15,1.31,0.23
			c0.42-0.32,0.93-0.35,1.47-0.1c0.35,0.16,0.67,0.44,1.11,0.24c0.04-0.15,0.07-0.29,0.14-0.56c0.2,0.28,0.33,0.45,0.46,0.63
			c0.03,0,0.1,0.01,0.11,0c0.15-0.3,0.4-0.37,0.72-0.36c0.08,0,0.17-0.12,0.2-0.28c0.24,0.01,0.48,0.03,0.78,0.05
			c-0.1,0.22-0.18,0.38-0.26,0.55c0.35,0.24,0.56,0.24,1.29,0.05c0.05-0.13,0.11-0.25,0.15-0.38c0.09-0.27,0.46-0.34,0.52-0.27
			c0.35,0.39,0.93,0.14,1.25,0.54c0.49-0.44,1.04-0.08,1.52-0.23c0.07,0.17,0.12,0.28,0.16,0.36c0.4-0.05,0.8-0.02,1.15-0.14
			c0.98-0.33,1.96-0.32,2.95-0.16c0.04,0.01,0.08,0.02,0.12,0.03c0.8,0.25,0.9,0.25,1.67,0.14c0.45-0.07,0.87-0.03,1.29,0.24
			c0.17,0.11,0.5,0.21,0.73-0.06c0.15-0.18,0.45-0.19,0.51,0c0.11,0.35,0.32,0.35,0.68,0.28c-0.13,0.17-0.19,0.26-0.23,0.3
			c0.4,0.2,0.79,0.39,1.23,0.61c0.39-0.4,0.87-0.43,1.39-0.11c0.16,0.09,0.36,0.11,0.4-0.17c0.01-0.03,0.11-0.05,0.17-0.07
			c0.18-0.07,0.39-0.09,0.53-0.21c0.21-0.19,0.39-0.24,0.64-0.13c0.44,0.2,0.91,0.24,1.39,0.15c0.13-0.02,0.29-0.01,0.39,0.05
			c0.37,0.22,0.73,0.48,1.08,0.72c0.65-0.38,1.04-0.27,1.23,0.35c0.58-0.22,1.09-0.2,1.4,0.32c0.29-0.03,0.52-0.06,0.74-0.09
			c0.33,0.32-0.01,0.84,0.38,1.27c0.04-0.36,0.41-0.52,0.13-0.86c-0.03-0.04,0.13-0.25,0.28-0.5c0.05,0.25,0.07,0.35,0.1,0.51
			c0.28,0.02,0.59,0.03,0.98,0.06c0.34,0.46,0.85,0.72,1.54,0.44c0.16,0.2,0.3,0.4,0.47,0.58c0.07,0.07,0.23,0.15,0.3,0.12
			c0.48-0.2,0.79,0.19,1.17,0.31c0.11,0.04,0.21,0.15,0.31,0.15c0.6,0,1.09,0.2,1.49,0.67c0.14,0.16,0.46,0.17,0.68,0.25
			c0.02,0.22-0.02,0.42,0.06,0.54c0.09,0.12,0.29,0.16,0.44,0.23c0.45,0.21,0.89,0.42,1.34,0.63c0.28,0.14,0.55,0.29,0.83,0.43
			c0.08,0.04,0.18,0.09,0.23,0.16c0.37,0.63,0.98,0.98,1.56,1.38c0.06,0.04,0.15,0.07,0.19,0.14c0.26,0.4,0.66,0.6,1.08,0.8
			c0.22,0.1,0.37,0.38,0.68,0.24c0.04-0.02,0.13,0.02,0.16,0.06c0.26,0.38,0.76,0.57,0.87,1.09c0.03,0.16,0.16,0.31,0.28,0.42
			c0.45,0.41,0.92,0.8,1.15,1.4c0.06,0.14,0.25,0.25,0.39,0.35c0.66,0.46,1.14,1.02,1.21,1.86c0.03,0.35,0.17,0.38,0.52,0.26
			c0.19-0.06,0.43-0.01,0.65-0.01c0.25,0.55,0.29,1.09,0.15,1.65c-0.13,0.51-0.22,1.04-0.31,1.56c-0.03,0.16,0,0.34,0,0.51
			c0.04,0.01,0.08,0.01,0.13,0.02c0.06-0.16,0.11-0.33,0.17-0.49c0.25,0.31,0.5,0.62,0.74,0.92c-0.15,0.09-0.34,0.19-0.5,0.32
			c-0.05,0.04,0,0.2,0.01,0.39c0.2-0.14,0.34-0.23,0.55-0.37c-0.04,0.2-0.09,0.33-0.07,0.44c0.01,0.1,0.1,0.19,0.17,0.31
			c-0.24,0.29-0.48,0.6-0.16,1.01c-0.29,0.15-0.55,0.28-0.81,0.41c-0.09-0.05-0.19-0.11-0.3-0.17c-0.02,0.06-0.05,0.11-0.04,0.13
			c0.09,0.14,0.13,0.3,0.38,0.29c0.22-0.01,0.3,0.3,0.14,0.44c-0.37,0.34-0.71,0.81-1.15,0.97c-0.46,0.17-0.76,0.5-0.96,0.81
			c-0.28,0.42-0.67,0.62-1.01,0.92c-0.17,0.15-0.4,0.25-0.64,0.4c0.01-0.02-0.03,0.02-0.03,0.05c0.1,0.86-0.12,1.7-0.13,2.55
			c-0.01,0.43,0.06,0.81,0.45,1.1c0.13,0.1,0.26,0.42,0.2,0.51c-0.3,0.46,0.04,0.81,0.18,1.16c0.11,0.28,0.11,0.42-0.15,0.58
			c-0.14,0.08-0.24,0.23-0.42,0.42c0.52,0.02,1-0.03,1.03,0.6c0.15-0.01,0.27-0.02,0.4-0.03c-0.06,0.38-0.39,0.38-0.67,0.49
			c0.25,0.38,0.23,0.94,0.83,1.14c0.02-0.16,0.03-0.27,0.04-0.41c0.17,0,0.34,0,0.47,0c0.58-0.53,0.97-1.24,1.85-1.43
			c-0.06-0.21-0.09-0.49,0.21-0.7c0.06-0.04,0.03-0.23,0.04-0.39c0.08,0.04,0.2,0.09,0.31,0.15c0.52-0.37,0.52-0.37,1,0.17
			c0.07-0.12,0.16-0.22,0.18-0.33c0.04-0.21,0.04-0.43,0.06-0.64c0.04-0.37,0.18-0.65,0.66-0.63c-0.05-0.17-0.07-0.29-0.12-0.39
			c-0.14-0.28,0.04-0.55,0.2-0.62c0.42-0.18,0.85-0.38,1.36-0.34c-0.04,0.32-0.58,0.14-0.47,0.56c0.28,0.04,0.57,0.09,0.9,0.14
			c0.09-0.23,0.25-0.36,0.57-0.22c0.19,0.09,0.44,0.07,0.75,0.12c-0.09-0.26-0.15-0.42-0.23-0.65c0.31-0.13,0.63-0.32,0.96-0.37
			c0.17-0.02,0.52-0.14,0.61,0.2c0.08,0.33,0.53-0.08,0.58,0.31c0.03,0.23,0.11,0.45,0.2,0.75c0.2-0.23,0.27-0.39,0.17-0.6
			c-0.07-0.15-0.12-0.35,0.09-0.4c0.11-0.03,0.27,0.08,0.39,0.14c0.21,0.12,0.33,0.27,0.31,0.57c-0.01,0.17,0.22,0.36,0.35,0.55
			c0.08-0.04,0.19-0.13,0.31-0.15c0.41-0.06,0.84-0.19,1.26,0.18c-0.15,0.1-0.26,0.17-0.39,0.25c0.03,0.17,1.15,0.21,1.63,0.03
			c0.42,0.36,0.65,0.94,1.3,1c0.05,0,0.12,0.05,0.14,0.09c0.12,0.32,0.34,0.23,0.59,0.08c-0.02,0.13-0.03,0.19-0.05,0.27
			c0.2-0.05,0.4-0.1,0.62-0.15c0.12,0.19,0.08,0.55,0.48,0.48c0.05-0.01,0.15,0.09,0.16,0.15c0.04,0.19,0.12,0.29,0.32,0.38
			c0.21,0.09,0,0.49,0.36,0.59c0.21,0.05,0.39,0.24,0.59,0.37c0.01,0.01,0.02,0.03,0.05,0.09c-0.08,0.08-0.18,0.17-0.28,0.27
			c-0.01,0.31,0.21,0.47,0.45,0.39c0.38-0.13,0.58-0.04,0.72,0.32c0.02,0.06,0.14,0.07,0.17,0.09c-0.09,0.24-0.14,0.38-0.21,0.57
			c0.13,0,0.22,0,0.26,0c0.29,0.56,0.6,1.07,0.82,1.62c0.15,0.39,0.35,0.8,0.12,1.28c0.51,0.05,0.64,0.59,1.09,0.69
			c0.04,0.01,0.08,0.09,0.09,0.15c0.04,0.39,0.16,0.81,0.06,1.16c-0.07,0.25-0.06,0.42,0.05,0.59c0.16,0.24,0.13,0.47,0.14,0.73
			c0.02,0.68-0.02,1.39,0.48,1.97c0.29,0.34,0.31,0.76,0.27,1.18c-0.1,0.08-0.36,0.04-0.26,0.3l0.02-0.02
			c-0.07,0.07-0.18,0.13-0.19,0.2c-0.06,0.44-0.27,0.73-0.83,0.78c0.11,0.26,0.15,0.5,0.28,0.67c0.21,0.28,0.29,0.53,0.16,0.87
			c-0.08,0.22-0.09,0.46-0.12,0.69c0,0,0,0,0,0c-0.05-0.16-0.09-0.32-0.15-0.52c-0.28,0.33-0.27,0.62-0.05,0.91
			c0.14,0.18,0.27,0.37,0.43,0.59c0.52,0.09,0.55,0.17,0.49,1.26c-0.16-0.05-0.31-0.1-0.49-0.15c-0.11,0.38,0.26,0.37,0.39,0.61
			c-0.01,0.15-0.03,0.36-0.05,0.62c-0.15-0.03-0.29-0.05-0.51-0.09c0.14,0.16,0.23,0.26,0.3,0.34c-0.24,0.24-0.55,0.44-0.66,0.72
			c-0.1,0.26-0.28,0.16-0.4,0.24c-0.23-0.06-0.45-0.39-0.71-0.04c0.24,0.51,0.48,0.12,0.72,0.03c-0.3,0.31-0.11,0.62,0.03,0.95
			c-0.39,0.32-0.53,0.75-0.53,1.24c0,0.18-0.13,0.35-0.2,0.53c-0.16,0.39-0.32,0.79-0.49,1.21c-0.44-0.25,0.09-0.47-0.07-0.7
			c-0.05,0-0.12,0-0.2,0c0.21-0.19,0.17-0.32-0.21-0.49c0.11,0.24,0.16,0.36,0.22,0.48c-0.05,0.08-0.11,0.15-0.14,0.24
			c-0.02,0.07,0.01,0.22-0.01,0.22c-0.56,0.13-0.43,0.87-0.94,1.04c-0.09,0.03-0.17,0.2-0.2,0.32c-0.09,0.32-0.15,0.65-0.25,0.97
			c-0.08,0.28-0.13,0.57-0.45,0.73c-0.13,0.06-0.19,0.29-0.26,0.45c-0.13,0.3-0.25,0.61-0.4,0.98c-0.3-0.28-0.19-0.48-0.04-0.66
			c0.16-0.2,0.27-0.38,0.07-0.65c-0.39,0.22-0.47,0.59-0.61,0.96c-0.11,0.02-0.24,0.05-0.39,0.08c-0.01,0.19-0.02,0.36-0.04,0.57
			c0.2,0.08,0.38,0.15,0.57,0.22c0.09,0.5,0.11,1-0.05,1.47c-0.11,0.31-0.36,0.57-0.46,0.88c-0.2,0.62-0.62,1.03-1.1,1.44
			c-0.52,0.45-0.94,1.02-1.41,1.53c-0.46,0.49-0.95,0.96-1.43,1.44c-1.18,1.17-2.63,1.93-4.08,2.68c-0.81,0.42-1.6,0.85-2.51,1.06
			c-0.39,0.09-0.72,0.39-1.08,0.59c-0.2,0.11-0.36,0.13-0.6-0.02c-0.18-0.12-0.47-0.05-0.72-0.06c-0.25,0-0.49,0.01-0.51,0.41
			c-0.2-0.14-0.34-0.24-0.53-0.37c-0.15,0.2-0.31,0.39-0.47,0.59c-0.14-0.08-0.27-0.3-0.48-0.09c-0.05,0.05-0.18,0.09-0.22,0.06
			c-0.44-0.34-0.98,0.04-1.43-0.19c-0.02-0.01-0.04-0.01-0.06,0c-0.59,0.35-1.06-0.27-1.62-0.22c-0.06,0.01-0.14-0.22-0.22-0.35
			c-0.33,0.41-0.56,0.73-0.83,1c-0.16,0.17-0.19,0.33-0.14,0.54c0,0,0-0.02,0-0.02c-0.05,0.25-0.18,0.24-0.32,0.09
			c-0.21-0.24-0.46-0.22-0.7-0.09c-0.08,0.04-0.11,0.18-0.16,0.27c-0.1-0.08-0.23-0.19-0.43-0.36c-0.06,0.23-0.09,0.37-0.13,0.52
			c-0.3-0.14-0.66-0.1-0.95,0.14c-0.18,0.15-0.33,0.15-0.54,0.12c-0.21-0.03-0.43,0.01-0.74,0.03c-0.02-0.03-0.08-0.14-0.14-0.23
			c-0.4,0-0.79,0-1.17,0c-0.01-0.04-0.01-0.08-0.02-0.12c0.13-0.07,0.27-0.15,0.44-0.25c-0.34-0.4-0.79-0.28-1.17-0.4
			c0.07-0.2,0.13-0.38,0.21-0.64c-0.33-0.09-0.62-0.17-0.86-0.23c-0.15-0.26-0.28-0.49-0.45-0.78c-0.18,0.25-0.45,0.33-0.25,0.65
			c0.03,0.06-0.05,0.23-0.12,0.29c-0.12,0.1-0.27,0.16-0.43,0.24c-0.01,0.15-0.03,0.3-0.04,0.48c-0.29,0.1-0.62,0.18-0.62,0.64
			c0.13,0.01,0.27,0.02,0.44,0.03c0,0.14,0,0.26,0,0.43c-0.19-0.09-0.34-0.17-0.53-0.26c-0.08,0.23-0.1,0.42-0.38,0.53
			c-0.33,0.12-0.27,0.59,0.11,1.03c-0.22,0.14-0.43,0.27-0.64,0.4c-0.02-0.22,0.27-0.49,0.01-0.65c-0.15-0.09-0.43,0.04-0.65,0.08
			c-0.05,0.01-0.08,0.07-0.12,0.11c0.23,0.43,0.23,0.43,0.78,0.45c-0.03,0.11-0.06,0.22-0.11,0.41c-0.25-0.12-0.46-0.21-0.65-0.33
			c-0.3-0.2-0.5-0.17-0.68,0.12c-0.08,0.13-0.13,0.29-0.23,0.39c-0.07,0.07-0.21,0.09-0.39,0.16c0.04,0.19,0.09,0.43,0.15,0.72
			c-0.27,0.27-0.49,0.62-0.24,1.08c-0.51,0.09-0.97,0.16-1.48,0.25c-0.01,0.04-0.02,0.13-0.03,0.27c-0.59-0.14-0.89,0.49-1.35,0.55
			c-0.59,0.08-0.79,0.56-1.24,0.79c0.08,0.12,0.13,0.22,0.21,0.35c-0.34,0.69-1.06,0.53-1.62,0.73c-0.09-0.37-0.17-0.69-0.25-0.97
			c-0.22-0.11-0.4-0.21-0.58-0.3c-0.04,0.17-0.1,0.39-0.16,0.62c0.19,0.06,0.39,0.07,0.49,0.17c0.09,0.09,0.08,0.29,0.11,0.47
			c-0.23,0.16-0.59,0.26-0.33,0.7c-0.05,0-0.09,0.01-0.14,0.01c-0.12-0.16-0.23-0.32-0.39-0.54c-0.59,0.31-1.18,0.61-1.49,1.29
			c-0.08-0.01-0.19-0.07-0.27-0.04c-0.32,0.11-0.6,0.51-0.99,0.14c-0.28,0.37-0.69-0.05-0.97,0.22c-0.33-0.38-0.62-0.71-0.93-1.08
			c-0.43,0.05,0,0.34-0.05,0.5c-0.05,0.21-0.01,0.44-0.01,0.7c-0.04,0.02-0.12,0.07-0.2,0.11c0.04,0.24,0.07,0.47,0.12,0.74
			c-0.13,0-0.22,0.03-0.28,0c-0.77-0.44-1.53,0.09-2.3,0.05c-0.16-0.01-0.32,0.16-0.49,0.18c-0.16,0.02-0.36,0-0.5-0.08
			c-0.17-0.09-0.35-0.1-0.42,0.04c-0.14,0.27-0.27,0.57-0.31,0.87c-0.02,0.18,0.1,0.38-0.11,0.53c-0.22,0.16-0.45,0.25-0.73,0.14
			c-0.36-0.14-0.72-0.22-1.08-0.03c-0.2,0.5,0.18,0.71,0.55,0.96c-0.2,0.13-0.36,0.24-0.54,0.36c0.04,0.14,0.13,0.29,0.12,0.44
			c-0.01,0.66,0.46,0.92,0.95,1.02c0.65,0.13,1.05,0.61,1.58,0.91c0.07,0.04,0.13,0.09,0.22,0.16c0.19-0.09,0.39-0.17,0.66-0.3
			c0.05,0.18,0.1,0.35,0.17,0.59c0.21,0,0.48-0.06,0.72,0.02c0.24,0.08,0.44,0.29,0.67,0.45c-0.12,0.22-0.21,0.36-0.32,0.56
			c0.11,0,0.17,0.02,0.2,0c0.11-0.1,0.21-0.22,0.34-0.36c0.2,0.26,0.38,0.48,0.63,0.81c0.16-0.34,0.28-0.6,0.41-0.87
			c0.11,0.04,0.24,0.04,0.28,0.11c0.22,0.34,0.64,0.23,0.91,0.45c0.03,0.02,0.09,0.05,0.11,0.04c0.47-0.25,0.66,0.17,0.97,0.36
			c0.73,0.44,1.2,1.12,1.77,1.72c0.07,0.07,0.16,0.16,0.16,0.25c0.01,0.43,0.31,0.65,0.6,0.9c0.45,0.38,0.44,0.39,0.53,0.93
			c0.28,0.12,0.56,0.24,0.86,0.36c-0.01,0.09-0.02,0.21-0.04,0.36c0.1-0.08,0.18-0.14,0.27-0.22c0.05,0.05,0.13,0.1,0.12,0.13
			c-0.11,0.51,0.46,0.89,0.26,1.42c-0.02,0.04,0.03,0.12,0.06,0.16c0.47,0.47,0.57,1.07,0.6,1.72c0.28,0.03,0.38-0.09,0.31-0.33
			c-0.06-0.2-0.16-0.38-0.25-0.57c0.04-0.03,0.08-0.07,0.11-0.1c0.13,0.09,0.32,0.15,0.39,0.28c0.36,0.61,0.6,1.28,0.17,2.03
			c-0.21,0.37-0.45,0.72-0.67,1.06c0.16,0.59,0.52,0.94,1.12,1.11c-0.59,0.17-0.59,0.64-0.61,1.04c-0.31,0.12-0.57,0.19-0.8,0.32
			c-0.14,0.08-0.32,0.25-0.32,0.38c0.01,0.6-0.44,0.79-0.84,1.04c-0.19,0.13-0.36,0.3-0.54,0.45c-0.05-0.55-0.44-0.89-0.81-1.27
			c0.03-0.09,0.06-0.2,0.1-0.33c-0.13-0.08-0.25-0.15-0.31-0.19c-0.15,0.16-0.23,0.33-0.37,0.38c-0.35,0.13-0.55,0.37-0.64,0.56
			c0.25,0.27,0.46,0.49,0.72,0.77c0.24-0.03,0.53-0.42,0.94-0.21c-0.01,0.14-0.01,0.26-0.03,0.46c0.18-0.09,0.3-0.15,0.41-0.21
			c-0.08,0.28-0.14,0.57-0.23,0.85c-0.05,0.17-0.15,0.33-0.22,0.48c-0.48-0.18-0.31-0.55-0.36-0.88c-0.41,0.18-0.5,0.54-0.7,0.84
			c-0.19,0.01-0.31-0.36-0.59-0.1c0.03,0.14,0.08,0.3,0.12,0.46c-0.47,0.16-0.53,0.13-0.73-0.41c-0.63,0-0.71,0.05-0.93,0.6
			c-0.07,0.17-0.07,0.17-0.31,0.19c0.06-0.13,0.2-0.28,0.18-0.4c-0.03-0.16-0.17-0.29-0.3-0.48c0.16-0.21,0.35-0.45,0.57-0.74
			c-0.18-0.04-0.34-0.07-0.52-0.11c-0.13,0.15-0.25,0.3-0.39,0.47c-0.27-0.17-0.55-0.38-0.87,0.02c0.12,0.12,0.25,0.25,0.38,0.37
			c-0.44,0.16-0.44,0.16-0.73-0.25c-0.39,0-0.78-0.02-1.17,0.01c-0.09,0.01-0.16,0.16-0.27,0.27c0.09,0.11,0.17,0.21,0.25,0.32
			c-0.16,0.37-0.32,0.74-0.51,1.17c-0.06-0.02-0.28-0.08-0.28-0.1c0.07-0.42-0.34-0.48-0.52-0.7c-0.04-0.05-0.09-0.08-0.17-0.16
			c-0.18,0.29-0.45,0.5-0.38,0.9c0.02,0.1-0.14,0.27-0.26,0.34c-0.13,0.08-0.31,0.08-0.5,0.12c-0.02,0.14-0.04,0.29-0.07,0.48
			c-0.15,0.03-0.32,0.06-0.53,0.1c0-0.11,0-0.18,0-0.25c0.01-0.39-0.05-0.44-0.45-0.39c-0.02-0.21-0.04-0.42-0.07-0.76
			c-0.22,0.2-0.34,0.3-0.48,0.43c-0.13-0.08-0.28-0.17-0.42-0.25c-0.02,0.02-0.04,0.04-0.06,0.05c0.14,0.18,0.27,0.35,0.46,0.59
			c-0.58,0.19-1.14,0.31-1.67,0.03c-0.28-0.15-0.44-0.14-0.67,0.07c-0.18,0.16-0.46,0.2-0.7,0.29c-0.05,0.02-0.13,0.01-0.17-0.02
			c-0.3-0.23-0.6-0.47-0.95-0.75c-0.16,0.04-0.38,0.1-0.61,0.15c0.02,0.08,0.01,0.14,0.03,0.15c0.15,0.07,0.33,0.09,0.46,0.19
			c0.22,0.17-0.1,0.31-0.07,0.47c0.03,0.16,0.12,0.31,0.18,0.48c-0.29,0-0.29,0-0.45-0.42c-0.2-0.02-0.41-0.03-0.62-0.05
			c-0.01,0.03-0.01,0.06-0.02,0.09c0.15,0.03,0.31,0.07,0.48,0.11c-0.01,0.06,0,0.13-0.03,0.16c-0.2,0.2-0.48,0.22-0.73,0.31
			c-0.55,0.18-1.1-0.15-1.6,0.11c-0.07-0.24-0.13-0.47-0.21-0.73c-0.39,0.17-0.59,0.35-0.36,0.7c-0.3,0.26-0.61,0.39-0.96,0.3
			c-0.26-0.07-0.41,0.04-0.51,0.29c-0.06-0.37,0.47-0.58,0.18-0.98c-0.37,0.2-0.19,0.72-0.54,0.92c-0.56-0.03-1.14-0.05-1.72-0.08
			c-0.01-0.05-0.03-0.1-0.04-0.16c0.18-0.11,0.36-0.23,0.6-0.38c-0.21-0.06-0.36-0.11-0.52-0.16c-0.15,0.22-0.28,0.41-0.47,0.69
			c0-0.22,0-0.31,0-0.39c-0.04,0.01-0.09,0-0.11,0.02c-0.36,0.44-0.86,0.5-1.38,0.5c-0.16,0-0.33,0.01-0.46-0.06
			c-0.29-0.15-0.57-0.17-0.86-0.02c-0.02,0.01-0.04,0.02-0.05,0.03c-0.23,0.12-0.42-0.34-0.67-0.04c-0.21,0.24-0.5,0.19-0.78,0.16
			c-0.26-0.03-0.52-0.12-0.76-0.08c-0.6,0.11-1-0.26-1.48-0.54c-0.1,0.11-0.19,0.25-0.32,0.33c-0.08,0.05-0.28,0.04-0.32-0.01
			c-0.33-0.49-0.85-0.41-1.3-0.42c-0.55-0.02-1.01-0.26-1.5-0.43c-0.09-0.03-0.18-0.08-0.26-0.08c-0.68,0.03-1.33-0.09-1.93-0.48
			c0.06-0.13,0.12-0.24,0.17-0.36c-0.31-0.11-0.6-0.21-0.94-0.33c-0.1,0.09-0.26,0.24-0.4,0.37c-0.24-0.05-0.38-0.49-0.65-0.11
			c-0.26-0.28-0.5-0.14-0.78,0c-0.21,0.1-0.49-0.14-0.54-0.41c-0.02-0.12-0.02-0.24-0.03-0.3c-0.21-0.15-0.36-0.33-0.54-0.37
			c-0.29-0.06-0.51-0.35-0.88-0.2c-0.11,0.05-0.43,0.03-0.56-0.09c-0.4-0.36-0.87-0.3-1.34-0.33c-0.15-0.01-0.35,0.01-0.44-0.07
			c-0.38-0.35-0.92-0.35-1.32-0.67c-0.26-0.21-0.54-0.35-0.74-0.64c-0.3-0.42-0.84-0.5-1.28-0.72c-0.1-0.05-0.29-0.09-0.3-0.15
			c-0.07-0.37-0.61-0.26-0.63-0.65c-0.34,0.05-0.3-0.25-0.39-0.42c-0.13-0.26-0.26-0.53-0.42-0.86c0.1-0.09,0.24-0.23,0.43-0.42
			c-0.28-0.02-0.48-0.03-0.76-0.04c0.1-0.16,0.16-0.25,0.22-0.34c-0.35-0.28-0.53-0.64-0.49-1.1c0.02-0.25,0.04-0.49,0.06-0.79
			c0.18-0.03,0.43-0.07,0.75-0.11c-0.04-0.24-0.1-0.44-0.09-0.65c0-0.18,0.07-0.37,0.11-0.58c-0.17,0.07-0.36,0.15-0.54,0.22
			c0.1-0.29,0.06-0.56,0.07-0.83c0.02-0.28,0.16-0.56,0.29-0.94c0.47-0.18,0.87-0.63,1.33-1.01c0.46-0.39,0.9-0.8,1.36-1.21
			c-0.09-0.19-0.22-0.34-0.22-0.49c0-0.13,0.14-0.26,0.24-0.41c0.45,0.14,0.86,0.28,1.37,0.44c0.12-0.17,0.38-0.38,0.42-0.63
			c0.04-0.25,0.17-0.36,0.35-0.48c-0.28-0.31-0.54-0.08-0.87-0.03c-0.06-0.21-0.12-0.42-0.17-0.6c0.45,0,0.84,0,1.22,0
			c0.1,0.21,0.19,0.41,0.33,0.69c0.14-0.2,0.22-0.31,0.33-0.45c0.08,0.13,0.15,0.24,0.21,0.34c0.22-0.06,0.44-0.12,0.72-0.2
			c-0.08-0.31-0.15-0.63-0.24-0.99c0.1-0.06,0.21-0.12,0.36-0.2c-0.08-0.11-0.15-0.22-0.27-0.38c0.26,0.03,0.48,0.05,0.7,0.07
			c0.21,0.4,0.2,0.38,0.63,0.22c0.18-0.07,0.41,0.01,0.67,0.02c0.23-0.27,0.48-0.62,0.98-0.39c-0.02-0.11-0.03-0.19-0.05-0.3
			c0.28,0,0.61,0.1,0.65-0.31c0.33,0.03,0.64,0.31,0.84-0.09c0.01-0.03,0.09-0.05,0.1-0.04c0.41,0.3,0.54-0.12,0.74-0.3
			c0.15,0.02,0.3,0.09,0.4,0.05c0.29-0.12,0.57-0.23,0.9-0.18c0.04,0.01,0.1-0.11,0.15-0.17L61.72,125.39z M115.61,81.71
			c0.04-0.15,0.15-0.31-0.06-0.53c-0.1,0.24-0.28,0.4,0.08,0.51c0.18,0.43,0.61,0.89,0.35,1.33c-0.25,0.43,0.13,0.96-0.37,1.29
			c-0.12,0.02-0.28,0.04-0.47,0.07c0.17,0.24,0.3,0.44,0.45,0.65c-0.97,0.24-0.97,0.24-1.03,1.17c0.28,0.05,0.39-0.06,0.42-0.34
			c0.01-0.06,0.25-0.17,0.3-0.14c0.11,0.08,0.17,0.23,0.27,0.39c-0.16,0-0.25,0-0.32,0c-0.04,0.14-0.05,0.27-0.11,0.38
			c-0.12,0.25-0.19,0.52,0.02,0.72c0.31,0.29,0.14,0.51,0,0.77c-0.26-0.08-0.48-0.32-0.76-0.04c0.08,0.06,0.15,0.12,0.22,0.17
			c-0.21,0.22,0.08,0.62-0.33,0.81c-0.15,0.07-0.26,0.42-0.25,0.64c0.02,0.32-0.25,0.3-0.29,0.33c-0.04,0.38-0.08,0.64-0.1,0.91
			c-0.01,0.07,0.01,0.16,0.06,0.2c0.2,0.18,0.21,0.35,0.03,0.56c-0.05,0.06-0.06,0.19-0.03,0.27c0.12,0.39,0.25,0.76,0.11,1.18
			c-0.03,0.09,0.06,0.21,0.1,0.32c-0.14,0.05-0.26,0.1-0.37,0.14c0.21,0.59,0.21,1.09,0,1.44c-0.06-0.04-0.13-0.08-0.19-0.11
			c-0.3-0.15-0.5-0.07-0.47,0.24c0.05,0.47-0.21,0.58-0.59,0.59c0,0.27,0,0.49,0,0.81c0.28-0.13,0.5-0.23,0.74-0.34
			c0.1,0.21,0.18,0.41,0.29,0.65c-0.36,0.06-0.48,0.43-0.91,0.42c0.22,0.18,0.38,0.31,0.58,0.48c-0.05,0.23-0.11,0.49-0.18,0.77
			c-0.16-0.05-0.23-0.07-0.3-0.1c-0.34-0.17-0.4-0.16-0.54,0.15c-0.08,0.19-0.11,0.37,0.03,0.56c0.08,0.1,0.13,0.24,0.15,0.37
			c0.03,0.25,0.03,0.5,0.05,0.76c-0.16,0.1-0.32,0.2-0.49,0.3c0.11,0.12,0.18,0.2,0.31,0.33c-0.24,0.14-0.45,0.27-0.67,0.4
			c-0.09-0.16-0.16-0.28-0.23-0.4c0.06,0.38-0.11,0.67-0.31,0.93c-0.22,0.29-0.47,0.55-0.73,0.85c-0.12-0.17-0.08-0.52-0.42-0.45
			c-0.3,0.05-0.32,0.31-0.35,0.46c0.5,0.43,1.18,0.14,1.64,0.52c0.65-0.12,1.28-0.24,1.91-0.35c0.06-0.01,0.13-0.01,0.18,0.01
			c0.45,0.22,0.88-0.01,1.27-0.12c1.04-0.28,2.04-0.73,3.11-0.91c0.33-0.06,0.66-0.07,0.99-0.12c0.52-0.08,1.04-0.19,1.57-0.26
			c0.64-0.09,1.24-0.35,1.86-0.44c0.52-0.08,0.91-0.28,1.35-0.49c0.46-0.21,0.86-0.7,1.34-0.49c0.58-0.3,1.05-0.57,1.55-0.79
			c0.56-0.25,1.14-0.43,1.7-0.67c0.17-0.07,0.29-0.26,0.4-0.43c0.04-0.07-0.09-0.27-0.05-0.31c0.38-0.33,0.3-0.86,0.57-1.24
			c0.09-0.13,0.13-0.28,0.21-0.42c0.15-0.27,0.31-0.53,0.46-0.77c0.46,0.14,0.66,0.02,0.67-0.33c0-0.15-0.06-0.33,0-0.46
			c0.16-0.4,0.05-0.92,0.52-1.19c0.04-0.02,0.03-0.11,0.05-0.17c0.11-0.27,0.23-0.54,0.35-0.8c0.1-0.23,0.34-0.51,0.28-0.68
			c-0.16-0.45,0.05-0.78,0.19-1.13c0.47-1.17,1.09-2.28,1.42-3.52c0.05-0.18,0.09-0.31,0.04-0.5c-0.09-0.33,0.11-0.67,0.41-0.84
			c0.55-0.31,0.61-0.85,0.08-1.27c0.13-0.23,0.26-0.46,0.41-0.74c-0.14-0.32-0.03-0.67,0.09-1.03c0.04-0.11,0.12-0.26,0.08-0.32
			c-0.14-0.23-0.03-0.42,0.02-0.63c0.12-0.52,0.28-1.04,0.34-1.57c0.07-0.51-0.06-1.03,0.18-1.52c0.03-0.06,0.01-0.17-0.02-0.23
			c-0.15-0.28-0.06-0.54,0.03-0.81c0.05-0.14,0.1-0.38,0.03-0.44c-0.25-0.22-0.12-0.42-0.05-0.65c0.06-0.2,0.12-0.42,0.1-0.62
			c-0.02-0.18-0.23-0.37-0.2-0.51c0.08-0.38-0.34-0.21-0.4-0.47c0.08-0.18,0.17-0.39,0.23-0.53c-0.15-0.38-0.28-0.7-0.4-1
			c-0.12-0.04-0.22-0.08-0.33-0.11c0.03-0.27,0.05-0.5,0.07-0.74c-0.17-0.18-0.27-0.38-0.31-0.6c-0.04-0.19-0.13-0.28-0.32-0.29
			c-0.13-0.01-0.26-0.02-0.33-0.03c-0.03-0.26-0.04-0.48-0.09-0.69c-0.04-0.18-0.13-0.35-0.2-0.57c-0.22-0.1-0.49-0.29-0.79-0.34
			c-0.4-0.07-0.67-0.21-0.86-0.58c-0.11-0.21-0.36-0.38-0.58-0.51c-0.2-0.11-0.5-0.25-0.67-0.17c-0.37,0.17-0.7,0.03-1.05,0.03
			c-0.26,0-0.58,0.12-0.76,0.01c-0.47-0.28-0.74,0.01-1.07,0.22c-0.12,0.08-0.28,0.2-0.41,0.18c-0.54-0.1-0.86,0.2-1.17,0.56
			c-0.03,0.04-0.09,0.05-0.14,0.08c-0.05-0.11-0.1-0.21-0.14-0.3c-1.08,0.25-1.65,1.21-2.55,1.67c-0.07,0.42-0.44,0.6-0.71,0.85
			c-0.52,0.49-1.03,1-1.72,1.27c-0.08-0.09-0.14-0.17-0.24-0.27c-0.4,0.47-0.96,0.32-1.44,0.44c-0.1,0.03-0.26,0-0.33-0.07
			c-0.35-0.33-0.76-0.35-1.23-0.29c-0.2,0.62-0.4,1.24-0.6,1.86c0.19,0.07,0.3,0.11,0.39,0.15c-0.12,0.12-0.24,0.19-0.28,0.3
			c-0.09,0.24-0.11,0.5-0.22,0.73c-0.11,0.25-0.14,0.47-0.05,0.74c0.06,0.18,0.06,0.47-0.04,0.61c-0.34,0.44-0.24,0.85-0.02,1.28
			c-0.34,0.52-0.25,0.71,0.37,0.79c0.02,0,0.04-0.01,0.06-0.01c0.22,0.01,0.32,0.12,0.28,0.35c-0.1,0.57-0.2,1.13-0.3,1.72
			C115.87,81.65,115.74,81.68,115.61,81.71z M53.71,68.89c-0.35-0.03-0.65-0.41-1.05-0.12c-0.04,0.03-0.2-0.13-0.31-0.14
			c-0.14,0-0.38,0.03-0.4,0.1c-0.12,0.37-0.34,0.27-0.61,0.24c-0.37-0.04-0.72-0.18-1.14-0.03c-0.22,0.08-0.68,0.16-0.88-0.15
			c-0.29-0.44-0.64-0.55-1.09-0.32c-0.19-0.15-0.33-0.34-0.5-0.38c-0.19-0.04-0.41,0.08-0.62,0.11c-0.12,0.02-0.24,0-0.36-0.01
			c-0.63-0.04-1.06-0.57-1.67-0.69c-0.08-0.02-0.13-0.22-0.16-0.34c-0.06-0.19-0.18-0.24-0.37-0.2c-0.02,0.09-0.04,0.19-0.05,0.26
			c-0.9,0.18-1.71-0.13-2.46-0.52c-0.13,0.11-0.23,0.19-0.34,0.29c-0.15-0.28-0.23-0.6-0.43-0.73c-0.23-0.15-0.56-0.14-0.84-0.2
			c-0.02-0.13-0.04-0.24-0.06-0.4c-0.16,0.12-0.28,0.2-0.42,0.3c-0.19-0.28-0.36-0.52-0.56-0.8c-0.41,0.05-0.86,0.1-1.32,0.14
			c-0.09,0.01-0.22,0.01-0.28-0.05c-0.38-0.4-0.71-0.16-1.04,0.03c0.06,0.27,0.12,0.5,0.18,0.75c-0.26,0.05-0.44,0.09-0.63,0.13
			c0.16,0.34,0.31,0.64,0.43,0.95c0.05,0.14,0.08,0.32,0.03,0.45c-0.26,0.68-0.2,1.36-0.15,2.06c0.04,0.59,0.3,1.26-0.4,1.68
			c0.35,0.33,0.39-0.17,0.66-0.15c0.18,0.13,0.39,0.28,0.64,0.45c0.2-0.08,0.41-0.16,0.62,0.15c0.1,0.16,0.42,0.29,0.61,0.26
			c0.23-0.04,0.4,0.02,0.55,0.12c0.32,0.22,0.62,0.47,0.94,0.71c0.08,0.06,0.19,0.13,0.26,0.11c0.25-0.07,0.34,0.14,0.51,0.22
			c0.53,0.27,0.47,0.98,0.96,1.28C42.02,74.49,42,74.62,42,74.7c0.01,0.22,0.04,0.44,0.01,0.65c-0.02,0.14-0.09,0.3-0.18,0.41
			c-0.17,0.19-0.37,0.36-0.57,0.52c-0.24,0.19-0.55,0.42-0.81,0.25c-0.26-0.17-0.43-0.08-0.65-0.02c-0.17,0.05-0.37,0.07-0.53,0.01
			c-0.64-0.22-1.31-0.39-1.83-0.89c-0.22-0.21-0.51-0.09-0.71,0.03c-0.21,0.12-0.29,0.34-0.21,0.62c0.13,0.51,0.26,1.04,0.29,1.56
			c0.04,0.77-0.01,1.54-0.02,2.31c-0.01,0.53,0,1.06-0.02,1.59c0,0.09-0.04,0.2-0.1,0.27c-0.36,0.42-0.38,0.89-0.26,1.41
			c0.51,0.02,0.63,0.35,0.66,0.77c0.01,0.2,0.05,0.39,0.07,0.59c0.03,0.35,0.04,0.69-0.12,1.04c-0.18,0.39-0.3,0.79-0.12,1.26
			c0.13,0.34,0.16,0.77,0.08,1.12c-0.08,0.33,0.06,0.59,0.04,0.89c-0.01,0.2,0.39,0.15,0.21,0.41c0.24,0.29-0.04,0.58-0.01,0.87
			c0.03,0.29,0.06,0.57,0.1,0.92c0.44,0.16,0.53,0.52,0.38,1.02c-0.08,0.26-0.04,0.55-0.02,0.83c0.04,0.73,0.04,1.45-0.31,2.12
			c0.48,0.31,0.19,0.76,0.22,1.13c0.12,0.06,0.21,0.11,0.34,0.18c-0.13,0.2-0.23,0.36-0.28,0.44c0.08,0.31,0.23,0.56,0.17,0.74
			c-0.08,0.24-0.33,0.41-0.51,0.62c0.08,0.05,0.27,0.11,0.29,0.19c0.06,0.43,0.21,0.91,0.06,1.27c-0.14,0.35-0.04,0.55,0.09,0.81
			c-0.12,0.11-0.23,0.21-0.36,0.32c0.1,0.1,0.17,0.16,0.19,0.19c-0.07,0.13-0.2,0.26-0.19,0.39c0.01,0.36,0.03,0.73,0.14,1.07
			c0.22,0.7-0.05,1.46,0.34,2.08c0.06-0.11,0.16-0.27,0.25-0.43c0.26,0.11,0.44,0.22,0.46,0.48c0.04,0.45-0.38,0.5-0.63,0.72
			c0.02,0.31,0.03,0.62,0.05,0.92c0.22,0.07,0.39,0.13,0.56,0.18c-0.09,0.26-0.17,0.46-0.25,0.69c0.39,0.25,0.37,0.57,0.09,0.92
			c0.4,0.17,0.49,0.43,0.39,0.8c-0.04,0.16,0.03,0.35,0.04,0.52c0.01,0.13,0.02,0.27-0.01,0.4c-0.13,0.46,0.01,0.91,0.39,1.21
			c-0.11,0.39-0.1,0.69,0.07,0.75c0.13,0.05,0.3-0.05,0.54-0.09c0.17,0.12,0.4,0.33,0.67,0.44c0.28,0.11,0.61,0.1,0.9,0.2
			c0.16,0.06,0.31,0.23,0.41,0.38c0.08,0.12,0.1,0.29,0.14,0.43c0.24,0.02,0.5-0.03,0.66,0.07c0.17,0.12,0.24,0.37,0.38,0.61
			c0.21,0,0.46,0,0.71,0c0.03,0.14,0.04,0.25,0.07,0.37c0.52-0.3,0.63-0.28,0.95,0.16c0.28,0.39,0.56,0.78,0.87,1.23
			c0.1-0.16,0.18-0.3,0.26-0.43c0.33,0.17,0.65,0.34,1.01,0.53c0.11-0.55,0.62-0.42,0.93-0.71c0.1,0.21,0.18,0.37,0.26,0.53
			c0.52,0.18,1.05,0.34,1.63,0.18c0.13-0.04,0.3,0.07,0.44,0.12c0.03,0.01,0.04,0.06,0.06,0.09c-0.04,0.06-0.09,0.12-0.13,0.19
			c0.19,0.09,0.36,0.23,0.53,0.22c0.16-0.01,0.31-0.18,0.46-0.28c0.08,0.09,0.15,0.17,0.23,0.26c0.5-0.6,0.34-0.57,0.98-0.13
			c0.61-0.22,1.28,0.01,1.56,0.62c0.24,0.53,0.28,0.51,0.87,0.43c0-0.22-0.01-0.43,0.31-0.45c0.32-0.02,0.36,0.17,0.36,0.35
			c0.28,0.09,0.53,0.17,0.77,0.25c0.15-0.18,0.3-0.35,0.44-0.53c0.26,0.1,0.48,0.18,0.69,0.26c-0.03,0.27-0.07,0.51-0.09,0.73
			c0.52,0.11,0.89,0.46,1.38,0.43c0.17-0.01,0.35,0.03,0.52,0.06c0.16,0.03,0.32,0.08,0.52,0.12c-0.01,0.03-0.01-0.03,0.03-0.07
			c0.09-0.09,0.2-0.24,0.29-0.23c0.1,0.01,0.21,0.15,0.27,0.27c0.07,0.14,0.08,0.31,0.13,0.46c0.01,0.03,0.06,0.04,0.11,0.09
			c0.09-0.14,0.19-0.28,0.28-0.42c0.29,0.04,0.57,0.07,0.75,0.1c0.21-0.31,0.4-0.58,0.6-0.87c0.4,0.18,0.74,0.4,1.16,0.25
			c0.05-0.02,0.12,0.01,0.18,0.03c0.54,0.12,1.08,0.14,1.65,0.1c0.45-0.03,0.91,0.26,1.38,0.04c0.02-0.01,0.08,0.1,0.13,0.11
			c0.25,0.05,0.53,0.19,0.74,0.12c0.57-0.19,1.11,0.06,1.67,0.02c0.55-0.04,1.1,0.2,1.68-0.04c0.33-0.14,0.76-0.15,1.12-0.09
			c0.65,0.1,1.29-0.12,1.93,0.01c0.12,0.03,0.27-0.05,0.41-0.08c0.49-0.13,0.96-0.37,1.49-0.31c0.11,0.01,0.24-0.05,0.34-0.1
			c0.43-0.25,0.99-0.14,1.39-0.47c0.03-0.02,0.08-0.03,0.12-0.02c0.4,0.18,0.81-0.22,1.21,0.04c0.04,0.03,0.12,0,0.17-0.01
			c0.8-0.21,1.59-0.48,2.44-0.4c0.07,0.01,0.14-0.07,0.21-0.09c0.22-0.08,0.41-0.35,0.68-0.08c0.03,0.03,0.29-0.09,0.33-0.18
			c0.12-0.3,0.37-0.26,0.62-0.27c-0.04-0.34,0.18-0.51,0.41-0.4c0.27,0.14,0.33-0.19,0.52-0.14c0.42,0.37,0.42,0.37,0.97-0.21
			c0.05,0.55,0.07,0.57,0.56,0.48c-0.03-0.12-0.07-0.24-0.1-0.38c0.19,0.02,0.35,0.03,0.41,0.03c0.43-0.21-0.07-0.8,0.53-0.9
			c0.02,0.15,0.04,0.29,0.06,0.46c0.43-0.25,1.07-0.06,1.18-0.82c0.34,0.35,0.51,0.03,0.67-0.12c0.29-0.27,0.54-0.34,0.82,0.01
			c0.44-0.44,0.98-0.69,1.34-1.18c0.34-0.45,0.38-0.42,1.01-0.17c0.21-0.19,0.41-0.45,0.68-0.59c0.34-0.17,0.51-0.8,1.1-0.38
			c0.03-0.22,0.04-0.36,0.05-0.43c0.42-0.18,0.86-0.25,1.12-0.51c0.23-0.23,0.41-0.38,0.73-0.41c0.17-0.02,0.35-0.09,0.5-0.18
			c0.63-0.38,1.29-0.73,1.85-1.19c0.62-0.51,1.43-0.76,1.89-1.49c0.13-0.21,0.36-0.38,0.58-0.5c0.64-0.33,1.32-0.58,1.67-1.29
			c0.07-0.15,0.24-0.28,0.39-0.36c0.59-0.3,1.08-0.67,1.27-1.36c0.05-0.2,0.22-0.37,0.35-0.55c0.37-0.54,0.72-1.11,1.14-1.61
			c0.42-0.5,0.54-1.18,1.02-1.63c0.08-0.07,0.11-0.21,0.14-0.33c0.22-0.77,0.5-1.51,0.96-2.17c0.18-0.26,0.35-0.5,0.38-0.85
			c0.02-0.32,0.17-0.64,0.28-0.95c0.12-0.33,0.24-0.67,0.41-0.98c0.17-0.32,0.18-0.67,0.29-0.99c0.03-0.07,0.07-0.15,0.12-0.21
			c0.35-0.44,0.38-0.93,0.27-1.46c-0.05-0.26-0.02-0.55,0.04-0.81c0.11-0.45,0.27-0.89,0.44-1.46c-0.07,0.05-0.02,0.01,0.03-0.02
			c0.73-0.45,0.78-0.71,0.32-1.43c-0.07-0.11-0.1-0.26-0.09-0.39c0.07-0.77-0.02-1.58,0.5-2.26c0.05-0.07,0.04-0.18,0.06-0.28
			c0.06-0.31,0.11-0.62,0.17-0.93c0.08-0.42,0.29-0.87,0.22-1.27c-0.11-0.66,0.13-1.15,0.42-1.67c0.1-0.18,0.15-0.4,0.16-0.61
			c0.01-0.31-0.03-0.62-0.05-0.95c0.18,0.01,0.3,0.02,0.47,0.03c-0.07-0.24-0.32-0.46,0.01-0.65c0.04-0.02,0.05-0.17,0.02-0.22
			c-0.29-0.47-0.05-0.79,0.33-1.08c-0.36-0.57,0.03-1.08,0.06-1.69c-0.34-0.18-0.47-0.47-0.23-0.86c0.04-0.07-0.01-0.2,0-0.29
			c0.09-0.5-0.07-1.03,0.2-1.52c0.05-0.09,0.02-0.23,0.02-0.35c0.01-0.16-0.02-0.33,0.03-0.47c0.13-0.36,0.35-0.69,0.11-1.09
			c-0.03-0.05,0.01-0.16,0.03-0.23c0.08-0.41,0.17-0.82,0.23-1.23c0.02-0.14,0.02-0.34-0.06-0.44c-0.3-0.34-0.24-0.72-0.12-1.07
			c0.2-0.58-0.08-1.08-0.22-1.59c-0.07-0.24-0.17-0.46-0.14-0.72c0.05-0.36,0.35-0.74-0.1-1.06c-0.04-0.03,0.04-0.22,0.04-0.34
			c0.01-0.25,0.08-0.51-0.15-0.72c-0.05-0.05-0.06-0.18-0.05-0.27c0.04-0.41,0.08-0.82,0.14-1.22c0.05-0.32,0.12-0.64,0.18-0.95
			c-0.08-0.03-0.14-0.07-0.16-0.05c-0.31,0.23-0.75,0.22-0.99,0.6c-0.08,0.12-0.3,0.22-0.46,0.23c-0.87,0.05-1.58,0.39-2.21,1.01
			c-0.29,0.29-0.68,0.58-1.13,0.55c-0.22-0.02-0.37,0.01-0.54,0.11c-0.4,0.22-0.8,0.42-1.19,0.61c-0.2-0.19-0.06-0.59-0.5-0.56
			c0.02,0.27,0.04,0.51,0.05,0.71c-0.39,0.21-0.73,0.39-1.06,0.56c-0.07,0.04-0.14,0.12-0.2,0.11c-0.39-0.07-0.66,0.2-0.97,0.35
			c-0.23,0.11-0.42,0.17-0.71,0.13c-0.4-0.05-0.88-0.21-1.24,0.1c-0.22,0.19-0.41,0.19-0.65,0.13c-0.28-0.07-1.12,0.13-1.34,0.31
			c-0.36,0.3-0.74,0.3-1.14,0.1c-0.22,0.54-0.56,0.7-1.12,0.54c-0.17-0.05-0.34-0.1-0.51-0.11c-0.26-0.01-0.51,0.03-0.77,0.05
			c-0.05,0-0.1,0.04-0.15,0.06c0.05,0.15,0.09,0.27,0.13,0.4c-0.03,0.02-0.06,0.04-0.09,0.06c-0.14-0.11-0.28-0.22-0.43-0.34
			c-0.23,0.4-0.33,0.5-0.77,0.68c-0.16,0.07-0.33,0.14-0.49,0.21l0.02-0.01c-0.21,0.05-0.52,0.04-0.61,0.17
			c-0.24,0.36-0.54,0.23-0.85,0.23c-0.19,0-0.43-0.03-0.58,0.06c-0.83,0.54-1.72,0.44-2.65,0.35c0,0.13,0,0.25,0,0.32
			c-0.36,0.07-0.68,0.15-1,0.21c-0.09,0.02-0.23,0.03-0.28-0.02c-0.26-0.26-0.54-0.12-0.76,0c-0.26,0.13-0.44,0.06-0.6-0.08
			c-0.34,0.17-0.66,0.34-1,0.51c-0.27-0.14-0.54-0.28-0.82-0.43c-0.05,0.12-0.09,0.21-0.15,0.35c-0.13-0.18-0.22-0.32-0.33-0.48
			c-0.18,0.09-0.32,0.17-0.44,0.23c0.1,0.16,0.17,0.28,0.24,0.4c-0.14,0.05-0.28,0.11-0.43,0.15c-0.05,0.01-0.15-0.01-0.16-0.05
			c-0.12-0.25-0.3-0.13-0.5-0.13c-0.53,0.01-1.06-0.02-1.55,0.24c-0.02,0.01-0.04,0-0.06,0c-0.69-0.07-1.37-0.07-2.04,0.09
			c-0.08,0.02-0.18-0.04-0.35-0.09c0.68-0.24,1.45-0.11,1.75-0.93c-0.54-0.21-1.04,0.11-1.52,0.11c-0.09-0.12-0.16-0.2-0.17-0.21
			c-1.31,0.47-2.59,0.67-3.81,0.81c-0.11-0.2-0.17-0.3-0.24-0.43c-0.15,0.19-0.26,0.33-0.36,0.46c-0.27-0.04-0.52-0.08-0.78-0.12
			c0.39-0.56,0.19-0.83-0.76-1.04c-0.17,0.21-0.3,0.51-0.64,0.43c-0.76-0.19-1.53-0.1-2.29-0.14c-0.56-0.03-1.13,0.25-1.7-0.1
			c-0.24,0.22-0.45,0.43-0.68,0.65c-0.51,0.13-0.15-0.51-0.47-0.58c-0.18,0.08-0.37,0.16-0.55,0.24c0.02,0.12,0.04,0.19,0.05,0.24
			c-0.3,0.03-0.6-0.02-0.84,0.09c-0.51,0.23-0.97,0.34-1.49,0.02c-0.18-0.11-0.46-0.09-0.69-0.12c-0.28-0.04-0.53-0.05-0.79-0.3
			c-0.26-0.25-0.48-0.66-0.95-0.62c-0.27,0.02-0.54,0.03-0.81,0.05c-0.01,0.15-0.02,0.27-0.03,0.51c-0.29-0.43-0.73-0.12-0.99-0.41
			c-0.33,0.32-0.48-0.05-0.69-0.19c-0.1-0.07-0.2-0.13-0.31-0.19c-0.27,0.13-0.52,0.27-0.79,0.37c-0.11,0.04-0.29,0.03-0.38-0.04
			c-0.36-0.25-0.75-0.14-1.11-0.07c-0.27,0.06-0.51,0.04-0.75-0.02c-0.21-0.05-0.42-0.13-0.63-0.17c-0.26-0.04-0.51-0.04-0.61-0.37
			C54.06,68.93,53.84,68.92,53.71,68.89L53.71,68.89z M93.94,63.86c0.11-0.24,0.16-0.51,0.28-0.56c0.51-0.2,1.03-0.61,1.61-0.11
			c0.06,0.05,0.22-0.01,0.43-0.03c-0.35-0.36-0.69-0.45-1.07-0.38c-0.25,0.05-0.38-0.02-0.39-0.32c0.12-0.01,0.26-0.07,0.33-0.03
			c0.32,0.18,0.59,0.04,0.84-0.12c0.3-0.19,0.6-0.29,0.96-0.23c0.1,0.02,0.26-0.03,0.31-0.1c0.21-0.3,0.47-0.27,0.74-0.16
			c0.27,0.11,0.52,0.26,0.84,0.42c0.14-0.06,0.33-0.2,0.54-0.21c0.18-0.01,0.38,0.13,0.59,0.21c0.01-0.15,0.02-0.27,0.03-0.41
			c0.55,0.32,0.55,0.32,0.91-0.05c-0.12-0.09-0.24-0.17-0.37-0.26c0.27-0.1,0.51-0.18,0.75-0.27c0.31-0.11,0.62-0.26,0.94-0.32
			c0.93-0.15,1.86-0.28,2.74-0.65c0.16-0.07,0.3-0.17,0.44-0.27c0.12-0.07,0.22-0.16,0.34-0.22c0.31-0.15,0.65-0.25,0.94-0.44
			c0.24-0.16,0.55-0.39,0.61-0.63c0.1-0.45,0.39-0.46,0.74-0.5c0.07-0.59,0.52-0.82,1-0.97c0.46-0.14,0.97-0.36,1.37,0.18
			c0.11-0.12,0.19-0.2,0.26-0.29c0.27-0.34,0.53-0.69,0.81-1.03c0.27-0.32,0.61-0.46,1-0.34c0.24-0.25,0.47-0.49,0.7-0.74
			c0.47,0.1,0.71-0.28,1.02-0.49c0.44-0.29,0.5-0.54,0.25-1c-0.23-0.43-0.59-0.8-0.65-1.33c-0.01-0.05-0.06-0.11-0.11-0.14
			c-0.37-0.2-0.54-0.55-0.7-0.91c-0.21-0.47-0.44-0.92-0.67-1.38c-0.01-0.03-0.07-0.03-0.1-0.05c-0.04,0.07-0.08,0.14-0.17,0.3
			c-0.08-0.27-0.13-0.43-0.14-0.46c-0.28-0.19-0.49-0.28-0.61-0.43c-0.38-0.47-0.75-0.96-1.09-1.47c-0.19-0.29-0.38-0.4-0.73-0.37
			c-0.19,0.02-0.43-0.07-0.58-0.2c-0.21-0.17-0.36-0.42-0.58-0.69c0.02-0.05,0.07-0.23,0.12-0.43c-0.2,0-0.35,0.03-0.49,0
			c-0.68-0.14-1.2-0.57-1.74-0.97c-0.48-0.35-0.97-0.68-1.48-0.98c-0.52-0.31-1.11-0.51-1.59-0.87c-0.45-0.33-0.84-0.71-1.45-0.67
			c-0.06,0-0.13-0.09-0.2-0.12c-0.76-0.41-1.47-0.93-2.36-1.07c-0.33-0.05-0.67-0.11-0.97-0.25c-0.79-0.39-1.6-0.66-2.48-0.72
			c-0.07,0-0.15-0.06-0.22-0.08c-0.66-0.21-1.31-0.49-1.99-0.61c-1.24-0.22-2.46-0.57-3.73-0.55c-0.1,0-0.19-0.03-0.29-0.05
			c-0.25-0.06-0.49-0.12-0.74-0.17c-0.15-0.03-0.33,0-0.47-0.06c-0.61-0.22-1.21-0.14-1.82-0.02C85.95,38.93,85.47,39,85,38.99
			c-0.43,0-0.86-0.13-1.29-0.16c-0.29-0.02-0.61,0.1-0.89,0.03c-0.92-0.23-1.85-0.15-2.78-0.13c-0.34,0.01-0.7-0.09-1.01,0.01
			c-0.37,0.12-0.71-0.01-1.01-0.06c-0.79-0.14-1.57-0.14-2.35-0.17c-1.05-0.03-2.07,0.19-3.13,0.12c-0.74-0.05-1.49,0.11-2.24,0.16
			c-0.67,0.04-1.35,0.02-2.01,0.11c-0.81,0.11-1.66-0.11-2.45,0.25c-0.07,0.03-0.17,0.05-0.23,0.03c-0.31-0.11-0.58,0-0.87,0.1
			c-0.19,0.06-0.39,0.09-0.58,0.1c-0.41,0.03-0.84,0.01-1.24,0.07c-0.94,0.15-1.88,0.37-2.82,0.5c-0.96,0.13-1.82,0.67-2.81,0.67
			c-0.02,0-0.04,0.02-0.06,0.02c-0.66,0.15-1.28,0.48-2,0.4c-0.13-0.02-0.27,0.07-0.4,0.11c-1.23,0.35-2.42,0.8-3.61,1.26
			c-1.18,0.46-2.38,0.9-3.45,1.6c-0.08,0.05-0.17,0.11-0.26,0.12c-0.95,0.1-1.63,0.77-2.45,1.14c-0.71,0.32-1.36,0.8-2.03,1.2
			c-0.13,0.08-0.29,0.14-0.44,0.16c-0.45,0.08-0.83,0.28-1.16,0.58c-0.24,0.21-0.49,0.4-0.83,0.45c-0.12,0.02-0.23,0.13-0.33,0.22
			c-0.2,0.18-0.4,0.38-0.6,0.56c-0.2,0.19-0.4,0.38-0.61,0.56c-0.1,0.09-0.21,0.2-0.34,0.24c-0.41,0.11-0.71,0.34-0.96,0.67
			c-0.13,0.17-0.27,0.37-0.45,0.46c-0.64,0.35-0.88,0.96-1.04,1.59c-0.12,0.46-0.34,0.84-0.6,1.21c-0.22,0.32-0.54,0.6-0.44,1.02
			c-0.25,0.17-0.47,0.32-0.6,0.4c0.09,0.76,0.18,1.4,0.27,2.14c0.36-0.34,0.62-0.6,0.87-0.84c0.52,0.21,0.93,0.46,1.03,0.89
			c0.45,0.15,0.83,0.25,1.19,0.4c0.27,0.12,0.36,0.4,0.3,0.67c-0.1,0.38-0.21,0.76-0.26,1.15c-0.03,0.24-0.04,0.55,0.08,0.74
			c0.18,0.28,0.46,0.54,0.75,0.71c0.5,0.28,1.04,0.48,1.56,0.7c0.14,0.06,0.3,0.15,0.44,0.13c0.79-0.12,1.37,0.41,2.04,0.65
			c0.18,0.06,0.36,0.13,0.54,0.18c0.36,0.1,0.77,0.11,1.08,0.29c0.39,0.22,0.78,0.33,1.23,0.37c0.29,0.03,0.56,0.2,0.87,0.19
			c0.08,0,0.17,0.22,0.27,0.35c0.22-0.02,0.46-0.07,0.69-0.07c0.13,0,0.31,0,0.38,0.08c0.28,0.32,0.83,0.14,1.04,0.56
			c0.72,0.11,1.47-0.12,2.18,0.16c0.02,0.01,0.07-0.06,0.1-0.05c0.41,0.05,0.81,0.1,1.19,0.15c0.08,0.19,0.14,0.34,0.18,0.44
			c0.18,0.05,0.31,0.09,0.44,0.11c0.12,0.02,0.34-0.01,0.36,0.05c0.15,0.35,0.48,0.21,0.73,0.29c0.26,0.08,0.5,0.13,0.78-0.04
			c0.18-0.11,0.5-0.03,0.74,0.02c0.27,0.06,0.51,0.17,0.81,0.1c0.25-0.05,0.53,0.11,0.74-0.2c0.02-0.03,0.34,0.12,0.52,0.19
			c0.45-0.32,0.92-0.28,1.41-0.11c0.17,0.06,0.38,0.17,0.51,0.12c0.5-0.18,0.81,0.14,1.19,0.33c0.52,0.27,1.09,0.35,1.67,0.38
			c0.09,0.01,0.22-0.09,0.29-0.17c0.34-0.41,0.79-0.43,1.24-0.31c0.54,0.14,1.08,0.33,1.64,0.5c0.26-0.33,0.55-0.51,0.98-0.31
			c0.11,0.05,0.3-0.06,0.45-0.1c0.23-0.05,0.46-0.13,0.68-0.13c0.54,0,1.08,0,1.61,0.06c0.52,0.06,1-0.16,1.52-0.19
			c0.49-0.02,0.93,0.02,1.38,0.18c0.13,0.04,0.25,0.12,0.38,0.12c0.48,0.03,0.96,0.01,1.43,0.05c0.74,0.06,1.5-0.01,2.21,0.28
			c0.04,0.02,0.08,0.03,0.12,0.03c0.26,0.05,0.51,0.09,0.83,0.15c0.27-0.38,0.61-0.25,0.96,0.11c0.09-0.23,0.15-0.38,0.21-0.55
			c0.4-0.12,0.73-0.1,1.06,0.27c0.34,0.38,0.68,0.28,0.93-0.16c0.12-0.2,0.28-0.37,0.43-0.57c0.16,0.17,0.3,0.31,0.39,0.41
			c0.59-0.05,1.13-0.1,1.7-0.15c-0.05-0.21-0.08-0.38-0.13-0.59c0.49-0.03,0.95-0.01,1.34-0.28c0.07-0.05,0.19-0.03,0.29-0.03
			c0.22,0,0.45,0.07,0.65,0.01c0.39-0.12,0.51,0.35,0.84,0.34c0.05,0,0.12,0.25,0.19,0.41c0.24-0.03,0.47-0.06,0.69-0.09
			c0.02-0.55,0.06-0.57,0.55-0.56c0.27,0.01,0.55-0.06,0.82-0.09c0.04,0,0.07,0.01,0.1,0.01c0.07,0.12,0.13,0.23,0.23,0.42
			c0.07-0.31,0.12-0.52,0.16-0.73c0.05,0,0.1,0,0.15-0.01c0.06,0.19,0.13,0.38,0.19,0.57c0.35,0.19,0.59,0.05,0.85-0.25
			c-0.16-0.12-0.3-0.21-0.48-0.34c0.43-0.23,0.82-0.41,1.29-0.19c0.13,0.06,0.3,0.07,0.45,0.09c0.16,0.01,0.31,0,0.51,0
			c0.01-0.19,0.02-0.41,0.04-0.7c0.34,0.21,0.28,0.54,0.43,0.75c0.03,0.04,0.08,0.06,0.14,0.1c0.01-0.18,0.02-0.34,0.03-0.49
			c0.03,0,0.06-0.01,0.08-0.01c0.06,0.12,0.13,0.25,0.17,0.32C93.11,63.97,93.53,63.91,93.94,63.86z M32.41,86.13
			c0.15-0.21,0.25-0.35,0.37-0.5c-0.13-0.03-0.22-0.05-0.32-0.08c0.05-0.11,0.11-0.22,0.16-0.33c-0.13-0.03-0.22-0.05-0.25-0.06
			c-0.03-0.31-0.09-0.59-0.07-0.86c0.03-0.27,0.15-0.53,0.24-0.83c-0.04-0.07-0.12-0.16-0.14-0.27c-0.08-0.35-0.15-0.7-0.2-1.05
			c-0.05-0.35-0.14-0.72-0.08-1.06c0.06-0.32-0.2-0.72,0.2-0.97c0.02-0.01-0.03-0.11-0.03-0.16c-0.01-0.21-0.02-0.42-0.03-0.63
			c0-0.09,0.03-0.2,0-0.27c-0.22-0.51,0.05-0.95,0.11-1.29c-0.1-0.26-0.2-0.42-0.22-0.59c-0.07-0.67,0.19-1.34-0.03-2.01
			c-0.06-0.18-0.04-0.44-0.16-0.55c-0.21-0.2-0.49-0.33-0.75-0.47c-0.06-0.03-0.15,0.01-0.23,0.02c-0.46,0.02-0.93,0.05-1.39,0.07
			c-0.43,0.02-0.87,0.04-1.3,0.05c-0.15,0-0.34,0.02-0.44-0.06c-0.25-0.21-0.43-0.16-0.67,0.03c-0.2,0.15-0.46,0.22-0.6-0.04
			c-0.13,0.13-0.23,0.29-0.37,0.34c-0.26,0.11-0.56,0.12-0.82,0.23c-0.31,0.12-0.58,0.32-0.88,0.46c-0.29,0.14-0.49,0.52-0.91,0.36
			c-0.04-0.01-0.12,0.1-0.19,0.13c-0.21,0.11-0.41,0.22-0.63,0.31c-0.13,0.06-0.31,0.05-0.38,0.14c-0.27,0.36-0.7,0.41-1.05,0.61
			c-0.1,0.06-0.23,0.11-0.29,0.2c-0.33,0.57-0.87,0.91-1.4,1.27c-0.37,0.26-0.85,0.41-1.01,0.93c-0.05,0.15-0.24,0.26-0.38,0.37
			c-0.31,0.24-0.63,0.48-0.77,0.88c-0.02,0.05-0.05,0.12-0.1,0.14c-0.48,0.25-0.65,0.75-0.87,1.17c-0.68,1.28-1.29,2.59-1.89,3.9
			c-0.14,0.31-0.24,0.61-0.47,0.87c-0.06,0.06-0.09,0.2-0.06,0.27c0.2,0.56-0.03,1.11,0.01,1.66c0.03,0.55-0.16,1.08-0.04,1.65
			c0.08,0.37,0.02,0.87-0.57,1.11c0.21,0.06,0.39,0.08,0.4,0.12c0.04,0.39,0.49,0.65,0.36,1.08c-0.13,0.45,0.23,0.75,0.45,0.92
			c0.34,0.26,0.53,0.56,0.67,0.92c0.3,0.8,0.64,1.56,1.26,2.17c0.24,0.24,0.42,0.55,0.61,0.84c0.28,0.44,0.65,0.77,1.13,0.99
			c0.14,0.06,0.34,0.15,0.38,0.26c0.09,0.28,0.31,0.34,0.51,0.46c0.24,0.14,0.47,0.29,0.7,0.42c0.03,0.41,0.02,0.43,0.24,0.57
			c0.34,0.21,0.64,0.44,0.78,0.83c0.04,0.11,0.14,0.19,0.14,0.19c0.29,0.1,0.51,0.13,0.68,0.23c0.81,0.47,1.62,0.96,2.43,1.44
			c0.1,0.06,0.2,0.14,0.3,0.16c0.69,0.08,1.28,0.39,1.82,0.79c0.26,0.19,0.64,0.15,0.82,0.46c0.01,0.02,0.08,0.02,0.11,0.02
			c0.37-0.02,0.56,0.22,0.76,0.48c0.13,0.18,0.32,0.31,0.46,0.44c0.25-0.17,0.43-0.29,0.6-0.41c0.29,0.24,0.52,0.52,0.81,0.64
			c0.27,0.12,0.62,0.1,0.93,0.08c0.9-0.05,1.79,0.01,2.64,0.34c0.07,0.03,0.17-0.03,0.19-0.04c0-0.53,0.04-1-0.01-1.47
			c-0.06-0.48,0.14-1.03-0.35-1.43c0.68-0.77,0.14-1.38-0.22-1.94c0.07-0.24,0.18-0.42,0.14-0.57c-0.08-0.34-0.21-0.67-0.37-0.98
			c-0.1-0.19-0.1-0.35-0.05-0.56c0.11-0.47,0.17-0.94,0-1.44c-0.11-0.32,0-0.74,0.09-1.1c0.04-0.18,0.12-0.31-0.03-0.48
			c-0.06-0.07-0.07-0.21-0.07-0.32c-0.01-0.27,0-0.55-0.02-0.82c-0.08-0.86-0.2-1.72-0.24-2.58c-0.06-1.14-0.09-2.29-0.09-3.44
			c0-0.51-0.12-1.05,0.23-1.54C32.93,86.63,32.82,86.32,32.41,86.13z M82.84,130.34c-0.08,0.24-0.15,0.45-0.21,0.66
			c-0.03,0.13,0.01,0.32-0.07,0.39c-0.29,0.26-0.59,0.52-0.93,0.71c-0.27,0.15-0.58,0.4-0.92,0.1c-0.62,0.11-1.24,0.22-1.8,0.31
			c-0.5-0.18-1.03-0.26-1.4-0.54c-0.45-0.35-0.95,0.09-1.32-0.26c-0.12,0.13-0.21,0.22-0.3,0.32c-0.11-0.1-0.18-0.16-0.26-0.23
			c-0.07-0.06-0.15-0.11-0.22-0.17c-0.25,0.3-0.25,0.3-0.21,0.58c0.06,0.36-0.06,0.64-0.35,0.6c-0.38-0.05-0.57,0.24-0.9,0.35
			c-0.37-0.41-0.68-0.13-0.95,0.14c-0.25-0.03-0.47-0.06-0.69-0.07c-0.25-0.02-0.55,0.05-0.75-0.06c-0.35-0.19-0.73-0.15-1.08-0.23
			c-0.31-0.08-0.65-0.08-0.98-0.08c-0.52,0.01-1.03,0.05-1.55,0.07c-0.13,0-0.34-0.01-0.39-0.09c-0.35-0.51-0.97-0.36-1.43-0.61
			c-0.06-0.03-0.18-0.02-0.23,0.02c-0.39,0.35-0.77,0.3-1.15-0.01c-0.04-0.03-0.11-0.03-0.17-0.05c-0.15-0.36-0.05-0.87-0.75-0.99
			c0.64-0.38,0.25-0.97,0.57-1.34c-0.36-0.48-0.89-0.39-1.33-0.5c-0.7-0.18-1.41-0.16-2.11,0.03c-0.98,0.26-1.88,0.75-2.89,0.92
			c-0.06,0.01-0.11,0.04-0.16,0.07c-1.28,0.75-2.56,1.49-3.83,2.26c-0.26,0.16-0.48,0.4-0.7,0.62c-0.16,0.17-0.27,0.39-0.44,0.55
			c-0.17,0.16-0.27,0.32-0.28,0.56c-0.01,0.16-0.1,0.41-0.22,0.46c-0.42,0.18-0.53,0.43-0.33,0.84c-0.28,0.89,0.66,1.19,0.88,1.83
			c0.38,0.15,0.75,0.35,1.14,0.44c0.67,0.15,1.2,0.49,1.66,0.99c0.31-0.06,0.61-0.12,0.86-0.17c0.21,0.2,0.36,0.46,0.53,0.48
			c0.55,0.07,1.02,0.34,1.52,0.53c0.59,0.22,1.18,0.19,1.78,0.08c0.22,0.2,0.44,0.4,0.57,0.52c0.42,0.05,0.75,0.07,1.08,0.12
			c0.32,0.05,0.61,0.08,0.87-0.21c0.11-0.12,0.35-0.14,0.53-0.17c0.19-0.03,0.41,0.02,0.58-0.04c0.27-0.1,0.41,0.04,0.54,0.22
			c0.14-0.06,0.26-0.15,0.38-0.17c0.31-0.03,0.63-0.04,0.95-0.02c0.13,0,0.3,0.04,0.38,0.13c0.26,0.27,0.55-0.01,0.81,0.09
			c0.19-0.37,0.6-0.19,0.86-0.37c0.1,0.11,0.18,0.25,0.29,0.3c0.51,0.22,1.07,0.03,1.6,0.14c0.03,0.01,0.07-0.03,0.1-0.05
			c0.58-0.36,0.87-0.31,1.28,0.23c0.02,0.02,0.07,0.02,0.13,0.04c0.09-0.12,0.18-0.24,0.27-0.35c0.48,0.25,0.62,0.22,0.89-0.17
			c0.06-0.08,0.11-0.17,0.19-0.22c0.62-0.37,1.48-0.25,2.03,0.28c0.38,0.37,0.48,0.36,0.97,0.15c0.32-0.14,0.65-0.2,0.99,0.04
			c0.2,0.14,0.46,0.19,0.71,0.28c0.32-0.42,0.62-0.86,1.14-0.29c0.2-0.27,0.37-0.51,0.5-0.68c0.3-0.02,0.54-0.04,0.8-0.05
			c0.06,0.06,0.16,0.15,0.18,0.17c0.41-0.1,0.73-0.21,1.06-0.26c0.44-0.06,0.96,0.16,1.25-0.38c0.52-0.08,1.04-0.33,1.58-0.14
			c0.23,0.08,0.43,0.09,0.62-0.05c0.25-0.19,0.5-0.16,0.7-0.02c0.23-0.15,0.4-0.28,0.59-0.39c0.22-0.12,0.48,0.2,0.7-0.05
			c0.01-0.01,0.14,0.11,0.15,0.11c0.3-0.17,0.54-0.33,0.8-0.45c0.19-0.09,0.4-0.13,0.61-0.17c0.61-0.13,1.15-0.52,1.82-0.46
			c0.23,0.02,0.48,0.01,0.69-0.08c0.4-0.16,0.79-0.37,1.16-0.58c0.66-0.39,1.37-0.73,1.71-1.49c0.09-0.2,0.21-0.38,0.31-0.57
			c-0.19-0.15-0.32-0.31-0.19-0.56c0.17-0.34,0-0.61-0.27-0.76c-0.29-0.17-0.37-0.42-0.49-0.69c-0.11-0.26-0.24-0.55-0.44-0.75
			c-0.39-0.38-0.36-0.39-0.82-1.09c-0.15-0.23-0.37-0.6-0.82-0.59c-0.42,0.01-0.84-0.1-0.91-0.62c-0.46-0.05-0.9-0.35-1.11-0.74
			c-0.37,0.3-0.6-0.14-0.92-0.17c-0.25-0.52-0.91-0.55-1.23-1c-0.07-0.1-0.28-0.14-0.42-0.13c-0.57,0.03-1.03-0.17-1.48-0.52
			c-0.32-0.25-0.72-0.41-1.1-0.59c-0.25-0.12-0.57-0.03-0.61,0.2c-0.05,0.41-0.23,0.74-0.37,1.11c-0.04,0.11,0.01,0.29,0.09,0.38
			c0.18,0.2,0.16,0.38,0.09,0.61c-0.04,0.13-0.08,0.31-0.03,0.41c0.19,0.35-0.05,0.5-0.27,0.67c-0.03,0.02-0.03,0.07-0.05,0.14
			C82.61,130.14,82.71,130.22,82.84,130.34z M80.61,122.37c-0.74,0.12-1.22-0.09-1.34-0.8c-0.25,0.05-0.46,0.09-0.66,0.13
			c-0.22,0.54-0.45,0.61-0.91,0.28c-0.25-0.17-0.51-0.17-0.78-0.07c-0.12,0.04-0.26,0.15-0.37,0.12c-0.37-0.09-0.74,0.2-1.1-0.03
			c-0.04-0.03-0.25,0.11-0.31,0.22c-0.06,0.11-0.04,0.26-0.06,0.44c-0.42-0.1-0.51,0.24-0.64,0.52c-0.49-0.13-0.63-0.85-1.25-0.7
			c-0.01,0.2-0.03,0.38-0.04,0.57c-0.16-0.12-0.3-0.24-0.47-0.37c-0.15,0.24-0.27,0.44-0.38,0.63c-0.34,0.04-0.71-0.31-0.97,0.13
			c-0.22-0.12-0.31-0.53-0.59-0.31c-0.43,0.35-0.75,0.07-0.96-0.19c-0.21-0.25-0.39-0.24-0.6-0.14c-0.19,0.09-0.18,0.4-0.05,0.68
			c0.17,0.34,0.47,0.64,0.4,1.12c-0.14,0.03-0.28,0.08-0.43,0.09c-0.15,0-0.29-0.04-0.41-0.06c-0.08,0.22-0.16,0.41-0.23,0.61
			c-0.03,0.09-0.08,0.2-0.07,0.28c0.14,0.8-0.2,1.46-0.57,2.13c-0.05,0.1-0.09,0.25-0.05,0.34c0.14,0.33,0.32,0.64,0.53,1.05
			c0.19-0.28,0.31-0.46,0.46-0.69c0.4,0,0.84,0,1.27,0c0.11-0.17,0.18-0.37,0.32-0.45c0.15-0.09,0.36-0.06,0.57-0.08
			c0.06-0.18,0.12-0.36,0.18-0.53c0.46-0.07,0.81-0.65,1.36-0.24c-0.1,0.28-0.42,0.56-0.07,0.91c0.49-0.31,0.15-0.88,0.44-1.23
			c-0.37-0.23-0.37-0.23-0.43-0.61c0.23,0.15,0.39,0.26,0.56,0.37c0.08,0.05,0.14,0.14,0.22,0.16c0.64,0.16,1.28,0.39,1.98,0.31
			c0.05,0.17,0.1,0.33,0.17,0.56c0.41,0,0.81,0,1.23,0c0.06,0.29,0.07,0.28,0.45,0.49c0.07,0.04,0.11,0.14,0.17,0.21
			c0.08,0.09,0.16,0.18,0.27,0.29c0.31-0.46,0.61-0.69,1.17-0.58c0.51,0.1,1.02-0.39,0.92-0.85c-0.16-0.74,0.46-1.46-0.03-2.18
			c-0.02-0.02,0.02-0.08,0.02-0.11c0.04-0.28,0.07-0.55,0.12-0.87c-0.14,0.01-0.26,0.02-0.41,0.04c0.04-0.21,0.07-0.39,0.09-0.54
			c0.41-0.14,0.8-0.28,1.25-0.44C80.56,122.8,80.58,122.62,80.61,122.37z M83.16,65.38c0.9,0.2,2.31-0.01,2.6-0.37
			c-0.4-0.04-0.81-0.1-1.22-0.12C84.04,64.86,83.55,64.94,83.16,65.38z M13.11,98.32c-0.5,0.62-0.33,1,0.65,1.36
			c0.01-0.22,0.03-0.42,0.04-0.62c-0.21-0.09-0.37-0.15-0.52-0.21C13.22,98.67,13.17,98.51,13.11,98.32z M109.31,101.92
			c-0.57,0.06-0.4,0.7-0.84,0.76c-0.09-0.06-0.19-0.12-0.37-0.23c0.04,0.23,0.03,0.37,0.09,0.49c0.05,0.11,0.16,0.28,0.23,0.28
			c0.12,0,0.29-0.1,0.36-0.21C108.97,102.7,109.11,102.35,109.31,101.92z M91.54,117.21c-0.33-0.08-0.64-0.3-1.08-0.15
			c0.17,0.25,0.32,0.47,0.48,0.7C91.21,117.63,91.59,117.7,91.54,117.21z M93.73,116.32c0.45,0.25,0.6,0.24,0.81-0.02
			c0.26-0.32,0.21-0.69-0.13-1.03C94.4,116.01,94.35,116.09,93.73,116.32z M74.33,127.95c0.36,0.26,0.55,0.58,0.97,0.43
			C75.12,127.86,75.07,127.83,74.33,127.95z M125.11,64.09c-0.34,0.31-0.34,0.31-0.12,0.7c0.19-0.07,0.38-0.14,0.62-0.23
			C125.41,64.36,125.26,64.23,125.11,64.09z M93.04,116.53c-0.05-0.02-0.1-0.03-0.14-0.05c-0.1,0.2-0.2,0.4-0.32,0.64
			c0.19,0.1,0.33,0.17,0.49,0.25c0.05-0.13,0.07-0.2,0.1-0.28C92.75,117.01,93.01,116.74,93.04,116.53z M60.14,126.37
			c-0.24,0.02-0.44,0.04-0.64,0.06c0.14,0.09,0.3,0.1,0.41,0.18c0.1,0.08,0.15,0.23,0.22,0.35c0.04-0.01,0.08-0.02,0.11-0.04
			C60.2,126.75,60.17,126.58,60.14,126.37z M137.4,85.84c0.14-0.15,0.22-0.24,0.3-0.33c-0.09-0.08-0.18-0.19-0.28-0.24
			c-0.17-0.07-0.29,0.04-0.27,0.2C137.16,85.58,137.28,85.67,137.4,85.84z M112.4,107.77c0.11,0.23,0.26,0.3,0.53,0.2
			c-0.06-0.2-0.11-0.37-0.19-0.64C112.58,107.54,112.49,107.65,112.4,107.77z M63.97,143.65c-0.05,0.01-0.09,0.02-0.14,0.04
			c0.08,0.24,0.16,0.48,0.26,0.77c0.14-0.11,0.23-0.18,0.33-0.26C64.26,144,64.11,143.83,63.97,143.65z M122.11,105.73
			c-0.6,0.25-0.64,0.33-0.37,0.67C121.85,106.18,121.97,105.97,122.11,105.73z M92.59,117.38c-0.26-0.08-0.4-0.11-0.57-0.17
			c-0.02,0.22-0.04,0.37-0.07,0.62C92.18,117.67,92.32,117.57,92.59,117.38z M110.78,100.42c0.42-0.11,0.4-0.36,0.38-0.59
			c0-0.04-0.15-0.07-0.29-0.13C110.84,99.95,110.81,100.16,110.78,100.42z M73.6,128.01c-0.14-0.22-0.19-0.38-0.29-0.43
			c-0.09-0.05-0.24,0.01-0.36,0.02c0.05,0.1,0.08,0.24,0.16,0.31C73.19,127.97,73.33,127.96,73.6,128.01z M81.47,69.54
			c-0.39,0.31-0.39,0.33,0.09,0.62C81.53,69.94,81.5,69.76,81.47,69.54z M112,96.56c-0.3-0.14-0.48-0.09-0.6,0.22
			C111.64,96.83,111.85,96.9,112,96.56z M114.57,87.59c0.24-0.3,0.19-0.46-0.07-0.62C114.33,87.19,114.42,87.35,114.57,87.59z
			 M121.16,65.81c0.11-0.32,0.05-0.49-0.15-0.66C120.79,65.42,120.9,65.58,121.16,65.81z M13.35,81.2c0.19-0.08,0.35-0.13,0.27-0.34
			c-0.02-0.05-0.14-0.09-0.2-0.08C13.2,80.84,13.22,80.99,13.35,81.2z M121.99,64.82c0.24,0.1,0.36,0.02,0.43-0.17
			c0.01-0.04-0.04-0.13-0.07-0.14C122.14,64.44,122.03,64.54,121.99,64.82z M37.62,104.81c-0.27,0.34-0.27,0.34,0.06,0.61
			C37.66,105.22,37.64,105.03,37.62,104.81z M57.62,68.86c-0.34,0.11-0.3,0.24-0.13,0.38c0.05,0.04,0.12,0.05,0.25,0.09
			C57.69,69.15,57.66,69.02,57.62,68.86z M37.29,94.46c-0.15,0.15-0.23,0.23-0.3,0.33c-0.01,0.02,0.09,0.16,0.13,0.16
			C37.33,94.93,37.36,94.78,37.29,94.46z M111.35,99.05c0-0.05,0-0.11-0.01-0.16c-0.18-0.08-0.37-0.24-0.58,0.16
			C111,99.05,111.17,99.05,111.35,99.05z M41.6,113.57c0.19,0.29,0.22,0.29,0.62,0.05C41.99,113.6,41.81,113.59,41.6,113.57z
			 M105,107.44c-0.03-0.06-0.06-0.12-0.09-0.18c-0.1,0.05-0.2,0.1-0.29,0.16c0,0,0.06,0.13,0.07,0.13
			C104.79,107.53,104.89,107.48,105,107.44z M72.01,123.13c0.29,0.03,0.27-0.18,0.28-0.31c0-0.08-0.1-0.16-0.23-0.35
			C72.03,122.78,72.02,122.95,72.01,123.13z M47.79,67.8c0.04,0.03,0.08,0.07,0.11,0.1c0.09-0.08,0.18-0.15,0.27-0.23
			c-0.08-0.07-0.15-0.14-0.27-0.24C47.85,67.6,47.82,67.7,47.79,67.8z M48.83,137.31c0.06-0.08,0.1-0.12,0.13-0.17
			c-0.06-0.04-0.11-0.09-0.18-0.11c-0.03-0.01-0.11,0.09-0.11,0.1C48.71,137.19,48.77,137.24,48.83,137.31z M74.6,70.39
			c0.01,0.05,0.02,0.11,0.03,0.16c0.14-0.03,0.27-0.07,0.41-0.1c-0.01-0.05-0.02-0.09-0.04-0.14C74.87,70.34,74.74,70.36,74.6,70.39
			z M74.84,122.36c0.03-0.05,0.06-0.09,0.09-0.14c-0.09-0.04-0.18-0.09-0.27-0.1c-0.05,0-0.16,0.09-0.15,0.11
			c0.03,0.08,0.08,0.16,0.15,0.21C74.69,122.45,74.78,122.38,74.84,122.36z M113.3,93.34c0.09-0.1,0.14-0.17,0.19-0.23
			c-0.05-0.04-0.12-0.13-0.16-0.12c-0.07,0.02-0.13,0.1-0.2,0.15C113.18,93.19,113.23,93.24,113.3,93.34z M23.59,71.88
			c0.02,0.06,0.04,0.13,0.06,0.19c0.1-0.05,0.21-0.1,0.31-0.16c0,0-0.03-0.1-0.04-0.1C23.82,71.83,23.7,71.85,23.59,71.88z
			 M23.3,71.97c-0.13,0.12-0.22,0.2-0.3,0.28C23.25,72.34,23.41,72.34,23.3,71.97z M111,93.61c0.09-0.23,0.18-0.38-0.05-0.5
			C110.77,93.27,110.73,93.41,111,93.61z M54.94,121.03c-0.05-0.03-0.1-0.06-0.14-0.1c-0.02,0.08-0.06,0.16-0.05,0.23
			c0.02,0.07,0.09,0.15,0.15,0.19c0.03,0.02,0.11-0.06,0.17-0.1C55.03,121.17,54.99,121.1,54.94,121.03z M87.89,142.11
			c-0.05,0.09-0.11,0.16-0.11,0.23c0,0.04,0.11,0.07,0.16,0.1c0.03-0.07,0.07-0.13,0.08-0.2C88.03,142.21,87.95,142.17,87.89,142.11
			z M85.07,120.39c-0.01-0.05-0.02-0.11-0.02-0.16c-0.13,0.05-0.25,0.09-0.38,0.14c0.01,0.03,0.02,0.06,0.03,0.1
			C84.83,120.44,84.95,120.41,85.07,120.39z M113.08,91.1c0.06,0.01,0.12,0.03,0.18,0.04c0.02-0.12,0.05-0.24,0.07-0.36
			c-0.05-0.01-0.09-0.02-0.14-0.03C113.16,90.86,113.12,90.98,113.08,91.1z M136.46,88.95c-0.05,0.14-0.1,0.28-0.18,0.5
			C136.59,89.3,136.58,89.14,136.46,88.95z M89.1,118.53c-0.03,0.04-0.07,0.07-0.1,0.11c0.07,0.06,0.13,0.13,0.21,0.19
			c0.01,0.01,0.07-0.07,0.11-0.1C89.25,118.66,89.18,118.6,89.1,118.53z M117.3,56.1c0.04,0.01,0.09,0.03,0.13,0.04
			c0.02-0.11,0.05-0.23,0.07-0.34c-0.03-0.01-0.07-0.02-0.1-0.03C117.37,55.89,117.33,56,117.3,56.1z M96.76,138.23
			c0.04,0.02,0.09,0.04,0.13,0.05c0.04-0.09,0.08-0.18,0.12-0.27c-0.05-0.02-0.14-0.05-0.14-0.05
			C96.82,138.05,96.79,138.14,96.76,138.23z M50.12,132.19c-0.01,0.05-0.02,0.1-0.03,0.15c0.1,0.01,0.2,0.03,0.3,0.04
			c0.01-0.03,0.01-0.07,0.02-0.1C50.31,132.24,50.22,132.21,50.12,132.19z M89.62,117.83c-0.1-0.06-0.18-0.1-0.26-0.14
			c-0.01,0-0.08,0.11-0.07,0.12c0.06,0.06,0.14,0.11,0.21,0.15C89.52,117.98,89.57,117.9,89.62,117.83z M74.58,118.4
			c-0.03,0-0.07,0.01-0.1,0.01c0,0.09,0.01,0.18,0.02,0.27c0,0.01,0.09,0,0.14,0C74.62,118.59,74.6,118.49,74.58,118.4z
			 M37.82,107.4c-0.02,0.02-0.03,0.05-0.05,0.07c0.04,0.03,0.08,0.08,0.12,0.09c0.05,0.02,0.11,0,0.28,0
			C37.99,107.48,37.9,107.44,37.82,107.4z M37.48,103.06c-0.09-0.08-0.14-0.16-0.2-0.16c-0.04,0-0.13,0.09-0.13,0.14
			c0,0.05,0.07,0.14,0.13,0.15C37.33,103.2,37.39,103.12,37.48,103.06z M112.96,92.09c0.04-0.05,0.11-0.1,0.1-0.13
			c-0.01-0.05-0.07-0.1-0.12-0.11c-0.02-0.01-0.11,0.07-0.1,0.1C112.85,91.99,112.91,92.03,112.96,92.09z M111.37,97.44
			c-0.04-0.02-0.07-0.03-0.11-0.05c-0.04,0.09-0.08,0.18-0.12,0.28c0.04,0.02,0.07,0.03,0.11,0.05
			C111.28,97.62,111.32,97.53,111.37,97.44z M110.4,101.06c0-0.03,0-0.05,0-0.08c-0.12-0.01-0.24-0.01-0.36-0.02
			c0,0.03,0,0.07,0,0.1C110.16,101.06,110.28,101.06,110.4,101.06z M20.16,74.34c-0.03-0.02-0.07-0.05-0.1-0.07
			c-0.04,0.08-0.07,0.15-0.1,0.23c0,0.01,0.05,0.03,0.08,0.05C20.07,74.48,20.11,74.41,20.16,74.34z M80.72,70.73
			c0.06-0.06,0.1-0.1,0.12-0.14c0.01-0.02-0.04-0.09-0.06-0.09c-0.05,0.01-0.12,0.03-0.13,0.06C80.63,70.59,80.68,70.65,80.72,70.73
			z M71.53,119.8c0.07-0.12,0.11-0.16,0.12-0.21c0-0.01-0.06-0.06-0.08-0.06c-0.04,0.01-0.11,0.04-0.12,0.07
			C71.44,119.65,71.48,119.7,71.53,119.8z M88.2,118.59c0.07-0.07,0.12-0.12,0.15-0.18c0.01-0.02-0.08-0.12-0.09-0.11
			c-0.06,0.03-0.12,0.07-0.16,0.13C88.09,118.44,88.15,118.51,88.2,118.59z M134.35,68.78c-0.04,0.03-0.09,0.06-0.13,0.09
			c0.07,0.08,0.14,0.17,0.21,0.25c0.03-0.02,0.06-0.05,0.09-0.07C134.46,68.97,134.4,68.88,134.35,68.78z M96.8,132.94
			c-0.04-0.02-0.09-0.04-0.13-0.06c-0.01,0-0.04,0.08-0.04,0.08c0.04,0.03,0.08,0.06,0.13,0.08
			C96.77,133.02,96.78,132.99,96.8,132.94z M102.1,61.48c0.01,0.02,0.02,0.05,0.02,0.07c0.05,0,0.11,0.02,0.15,0
			c0.06-0.03,0.11-0.09,0.16-0.14c-0.02-0.02-0.03-0.05-0.05-0.07C102.29,61.38,102.19,61.43,102.1,61.48z M115.5,75.56
			c-0.13-0.05-0.2-0.1-0.27-0.1c-0.04,0-0.12,0.09-0.11,0.11c0.02,0.06,0.07,0.12,0.13,0.15C115.26,75.73,115.32,75.67,115.5,75.56z
			 M36.28,75.66c-0.05,0-0.11,0-0.16-0.01c0.01,0.1,0.02,0.19,0.03,0.29c0.03-0.01,0.1-0.01,0.1-0.02
			C36.27,75.84,36.27,75.75,36.28,75.66z M114.6,84.75c-0.09-0.05-0.15-0.1-0.18-0.09c-0.04,0.01-0.1,0.07-0.1,0.12
			c0,0.04,0.08,0.12,0.09,0.12C114.46,84.87,114.51,84.82,114.6,84.75z M12.61,81.83c0.02-0.03,0.03-0.06,0.05-0.09
			c-0.04-0.02-0.07-0.04-0.11-0.06c-0.01,0.03-0.03,0.07-0.02,0.1C12.54,81.81,12.58,81.82,12.61,81.83z"></path>
		<path d="M107.35,17.54c0.11-0.03,0.22-0.07,0.36-0.11c0.24,0.46-0.04,0.87-0.05,1.34c-0.43,0-0.6,0.31-0.74,0.65
			c-0.05,0.12-0.12,0.26-0.22,0.34c-0.38,0.31-0.84,0.56-0.94,1.11c-0.5,0.3-0.72,0.97-1.44,1.05c0.1,0.17,0.18,0.29,0.26,0.41
			c-0.42,0.31-0.42,0.31-1.12,0.19c-0.09,0.35-0.08,0.83-0.31,1.03c-0.4,0.35-0.3,0.82-0.51,1.2c-0.01,0.02-0.03,0.03-0.04,0.04
			c-0.39-0.21-0.38-0.2-0.64,0.1c-0.08,0.1-0.19,0.19-0.31,0.22c-0.38,0.12-0.66,0.33-0.86,0.68c-0.27,0.47-0.59,0.92-0.95,1.47
			c-0.16,0-0.42,0-0.68,0c-0.04,0-0.11-0.02-0.11-0.01c-0.2,0.53-0.56,0.12-0.84,0.14c-0.24,0.02-0.34-0.15-0.37-0.38
			c-0.03-0.27-0.08-0.54-0.12-0.84c-0.09,0.03-0.16,0.06-0.23,0.09c-0.44,0.2-0.47,0.35-0.19,0.81c0.05,0.08,0.01,0.21,0.01,0.32
			c-0.06,0.03-0.12,0.06-0.17,0.09c-0.05-0.09-0.1-0.18-0.13-0.27c-0.26-0.75-0.52-1.5-0.79-2.24c0.24-0.32-0.12-0.49-0.17-0.74
			c-0.08-0.38-0.15-0.77-0.18-1.16c-0.02-0.33,0.02-0.67,0.04-1c0.03-0.4,0.07-0.78,0.41-1.08c0.18-0.16,0.28-0.42,0.41-0.64
			c0.16-0.26,0.39-0.43,0.65-0.58c0.48-0.28,0.66-0.83,0.97-1.26c0.18-0.26,0.36-0.52,0.52-0.79c0.14-0.23,0.27-0.47,0.4-0.71
			c0.02-0.03,0.03-0.07,0.04-0.11c0.1-0.37,0.55-0.25,0.7-0.49c0.14-0.24,0.1-0.57,0.5-0.63c0.24-0.04,0.31-0.23,0.4-0.49
			c0.11-0.34,0.15-0.79,0.6-0.98c0.17-0.08,0.32-0.3,0.39-0.5c0.22-0.61,0.72-0.92,1.21-1.25c0.15-0.1,0.3-0.19,0.44-0.29
			c0.34-0.25,0.48-0.63,0.48-1.01c0-0.43,0.22-0.69,0.48-0.96c0.08-0.08,0.13-0.19,0.2-0.27c0.18-0.22,0.36-0.43,0.6-0.72
			c-0.1-0.21-0.16-0.59,0.13-0.8c0.22-0.16,0.58-0.14,0.99-0.22c0,0,0.12-0.14,0.09-0.24c-0.15-0.49,0.13-0.79,0.43-1.12
			c0.14,0.06,0.3,0.12,0.48,0.19c0.14-0.27,0.35-0.46,0.3-0.81c-0.03-0.24,0.67-0.5,0.83-0.31c0.18,0.21,0.36,0.19,0.62,0.19
			c0.19,0.35,0.37,0.71,0.58,1.11c0.17-0.2,0.32-0.36,0.48-0.55c0.19,0.4,0.35,0.77,0.54,1.13c0.19,0.36,0.13,0.81,0.44,1.11
			c-0.2,0.44,0.57,0.59,0.25,0.99c0.3,0.15,0.56,0.23,0.76,0.39c0.21,0.17,0.23,0.42,0.23,0.7c0,0.22,0.17,0.45,0.27,0.68
			c-0.39,0.14-0.72,0.25-1.19,0.41c-0.17,0.16,0.11,0.49,0.06,0.77c-0.28,0.24-0.38-0.13-0.61-0.14c-0.12,0.08-0.27,0.18-0.42,0.28
			c-0.09-0.13-0.19-0.27-0.28-0.4c-0.05,0.04-0.09,0.08-0.14,0.12c0.02,0.21,0.15,0.31,0.43,0.26c0.09,0.29,0.14,0.6,0.26,0.87
			c0.1,0.24,0.03,0.36-0.16,0.47c-0.08-0.24-0.17-0.49-0.27-0.77c-0.26,0.18-0.49,0.34-0.72,0.5c0.26,0.4,0.67,0.17,1.01,0.25
			c-0.02,0.12-0.04,0.23-0.07,0.4c-0.55-0.09-0.84,0.44-1.3,0.61c0.03,0.09,0.14,0.24,0.1,0.31c-0.09,0.17-0.23,0.37-0.39,0.43
			c-0.37,0.14-0.55,0.37-0.54,0.8c-0.4,0.02-0.77,0.04-1.2,0.06c0.01,0.19,0.02,0.38,0.04,0.57c-0.19-0.3-0.37-0.61-0.82-0.61
			c-0.12,0.18-0.23,0.35-0.31,0.47c0.11,0.19,0.27,0.41,0.25,0.43c-0.24,0.22,0.24,0.23,0.1,0.39c-0.14,0.25-0.54,0.28-0.5,0.66
			c-0.02,0.04-0.03,0.1-0.05,0.1c-0.67-0.01-0.76,0.53-0.98,1.02c0.29,0.05,0.53,0.09,0.75,0.13c0.14-0.31,0.29-0.56,0.37-0.84
			c0.04-0.12-0.06-0.28-0.1-0.42c0.41-0.02,0.58-0.31,0.66-0.65c0.08-0.33,0.21-0.38,0.5-0.23c0.09,0.05,0.23,0.01,0.43,0.01
			C107.53,17.79,107.44,17.67,107.35,17.54z M109.52,8.84c0.43,0.21,0.43,0.21,0.66-0.19C109.74,8.44,109.71,8.45,109.52,8.84z
			 M104.91,10.3c0.04,0.03,0.07,0.06,0.11,0.09c0.06-0.09,0.13-0.19,0.19-0.28c-0.02-0.02-0.05-0.04-0.07-0.06
			C105.06,10.14,104.98,10.22,104.91,10.3z"></path>
		<path d="M129.43,23.86c0.17-0.02,0.34,0.01,0.4-0.05c0.41-0.47,0.85-0.31,1.29-0.09c0.21,0.11,0.36,0.02,0.46-0.14
			c0.09-0.15,0.12-0.33,0.17-0.48c0.37-0.09,0.72-0.17,1.21-0.28c0.03,0.07,0.11,0.24,0.17,0.38c0.44-0.29,0.64-0.7,1.12-0.82
			c0.03,0.26,0.05,0.47,0.07,0.68c0.03,0.01,0.06,0.01,0.1,0.02c0.06-0.11,0.13-0.23,0.23-0.4c0.15,0.19,0.26,0.34,0.42,0.54
			c-0.22,0.05-0.37,0.08-0.55,0.12c0.06,0.05,0.11,0.09,0.15,0.13c0.09,0.09,0.17,0.18,0.26,0.27c-0.11,0.06-0.21,0.14-0.32,0.18
			c-0.48,0.14-0.69,0.52-0.83,0.94c-0.08,0.24,0.1,0.39,0.28,0.47c0.22,0.1,0.35,0.23,0.38,0.47c0.05,0.35,0.38,0.36,0.68,0.49
			c-0.05,0.15-0.06,0.33-0.15,0.42c-0.14,0.14-0.32,0.24-0.24,0.49c0.1,0.32,0.38,0.1,0.59,0.21c0.02,0.14,0.04,0.29,0.06,0.47
			c0.18,0.06,0.38,0.13,0.59,0.2c-0.21,0.23-0.4,0.43-0.64,0.68c-0.19-0.06-0.44-0.12-0.67-0.22c-0.37-0.15-0.73-0.02-0.96,0.37
			c0.25,0.46,0.71-0.01,1.01,0.21c-0.13,0.2-0.25,0.38-0.37,0.57c-0.23,0.37-0.53,0.59-0.98,0.55c-0.12-0.01-0.23-0.1-0.38-0.18
			c-0.15,0.09-0.37,0.22-0.61,0.36c-0.08-0.06-0.16-0.12-0.25-0.18c-0.12,0.12-0.25,0.22-0.34,0.35c-0.26,0.39-0.59,0.52-1.07,0.45
			c-0.36-0.06-0.72,0.08-1.04,0.33c-0.54,0.42-1.13,0.78-1.71,1.16c-0.08,0.05-0.21,0.11-0.27,0.08c-0.2-0.1-0.3,0.02-0.4,0.14
			c-0.17,0.2-0.34,0.39-0.65,0.36c-0.04,0-0.09,0-0.12,0.03c-0.35,0.28-0.76,0.39-1.22,0.37c0.01,0.5-0.27,0.72-0.73,0.83
			c0.13,0.17,0.22,0.29,0.32,0.43c-0.05,0.02-0.1,0.06-0.12,0.05c-0.48-0.32-0.92-0.28-1.4,0.07c-0.33,0.24-0.75,0.34-1.17,0.53
			c0.19,0.29,0.35,0.51,0.56,0.83c-0.3-0.1-0.47-0.17-0.64-0.22c-0.17-0.05-0.3-0.03-0.39,0.16c-0.03,0.07-0.2,0.07-0.42,0.13
			c-0.12,0.14-0.33,0.38-0.55,0.63c-0.13-0.03-0.24-0.07-0.35-0.07c-0.7-0.04-0.91,0.1-0.95,0.82c-0.02,0.45-0.35,0.57-0.59,0.81
			c-0.51-0.14-1.03-0.28-1.55-0.02c-0.12-0.16-0.23-0.29-0.35-0.45c-0.26,0.29-0.45,0.62-0.92,0.54c-0.06-0.17-0.12-0.37-0.19-0.57
			c-0.47-0.11-0.44,0.37-0.66,0.55c-0.39-0.11-0.35-0.35-0.25-0.61c0.08-0.22,0.15-0.44,0.24-0.71c-0.19-0.01-0.32,0.02-0.41-0.04
			c-0.1-0.06-0.24-0.25-0.22-0.28c0.25-0.35,0.06-0.74,0.07-1.08c0-0.45,0.21-0.77,0.37-1.16c-0.24-0.42-0.09-0.83,0.18-1.18
			c0.46-0.6,0.99-1.13,1.69-1.45c0.23-0.1,0.36-0.48,0.71-0.27c0.02,0.01,0.11-0.06,0.13-0.11c0.17-0.37,0.54-0.49,0.86-0.57
			c0.4-0.11,0.66-0.34,0.91-0.61c0.71-0.75,1.53-1.36,2.32-2.01c0.23-0.19,0.42-0.12,0.63,0.13c0.01-0.05,0.03-0.09,0.04-0.14
			c-0.04-0.1-0.08-0.2-0.15-0.38c0.35,0.02,0.66,0.04,1.04,0.06c0.11-0.26,0.24-0.59,0.37-0.9c0.15,0.33,0.47,0.17,0.81,0.22
			c-0.12-0.25-0.21-0.44-0.34-0.71c0.2,0.07,0.29,0.1,0.38,0.13c0.43-0.24,0.54-0.84,1.07-1.02c0.1,0.15,0.19,0.27,0.32,0.45
			c0-0.11-0.02-0.18,0-0.21c0.11-0.16,0.2-0.35,0.35-0.45c0.13-0.09,0.22-0.15,0.21-0.31c0-0.05,0.05-0.11,0.1-0.14
			c0.39-0.26,0.78-0.52,1.18-0.77c0.08-0.05,0.21-0.1,0.27-0.07c0.37,0.24,0.74-0.02,1.11,0C129.47,24.37,129.58,24.17,129.43,23.86
			z M131.07,28.34c0.02-0.03,0.05-0.07,0.05-0.1c0-0.12,0-0.25-0.01-0.37c0-0.01-0.1,0-0.15-0.01c0.01,0.13,0.02,0.27,0.04,0.4
			c0,0.03,0.06,0.04,0.09,0.06c-0.22,0.13-0.44,0.26-0.66,0.39c-0.22,0.12-0.23,0.28-0.17,0.49c0.48-0.14,0.94-0.26,1.1-0.83
			C131.25,28.35,131.16,28.35,131.07,28.34z M128.11,32.09c0.32-0.39,0.84-0.51,0.88-1.08C127.98,31.34,127.92,31.4,128.11,32.09z
			 M131.48,27.64c0.27,0.13,0.28,0.13,0.38-0.01c0.01-0.01-0.03-0.07-0.06-0.14C131.69,27.54,131.59,27.59,131.48,27.64z
			 M119.34,37.87c-0.02-0.04-0.04-0.09-0.06-0.13c-0.11,0.06-0.23,0.11-0.34,0.17c0.02,0.04,0.04,0.08,0.06,0.12
			C119.1,37.97,119.22,37.92,119.34,37.87z"></path>
		<path d="M79.19,21.23c-0.14-0.09-0.23-0.16-0.33-0.22c-0.31,0.28-0.12,0.59-0.15,0.89c0.41-0.16,0.49,0.12,0.61,0.43
			c-0.15,0.07-0.29,0.13-0.46,0.2c0.01,0.07,0.02,0.17,0.03,0.26c0.03,0.42,0.02,0.41-0.39,0.53c-0.11,0.03-0.23,0.15-0.28,0.26
			c-0.15,0.31-0.27,0.63-0.37,0.86c0.1,0.35,0.23,0.62,0.24,0.9c0,0.27-0.12,0.54-0.21,0.85c-0.4-0.09-0.42,0.27-0.53,0.51
			c-0.16,0.34,0.13,0.49,0.32,0.65c-0.03,0.28-0.07,0.54-0.08,0.79c-0.01,0.2-0.07,0.37-0.27,0.41c-0.26,0.05-0.41,0.15-0.48,0.44
			c-0.05,0.21-0.27,0.22-0.42,0.04c-0.13-0.15-0.23-0.32-0.35-0.49c-0.18-0.26-0.36-0.51-0.53-0.74c-0.51,0.05-0.06,0.42-0.25,0.55
			c-0.33-0.18-0.41-0.3-0.58-0.8c-0.05-0.01-0.12-0.05-0.16-0.03c-0.55,0.18-0.71,0.06-0.6-0.47c0.06-0.29,0.08-0.53-0.19-0.75
			c-0.21-0.17-0.2-0.65-0.06-0.9c0.06-0.1,0.12-0.21,0.14-0.32c0.07-0.37-0.22-0.53-0.73-0.44c0.11-0.12,0.22-0.24,0.36-0.4
			c-0.47-0.27-0.28-0.72-0.25-1.12c0.02-0.41-0.01-0.88,0.19-1.21c0.24-0.41,0.13-0.74,0.05-1.11c-0.02-0.07-0.02-0.18,0.02-0.23
			c0.41-0.56,0.29-1.22,0.38-1.85c0.03-0.21,0.13-0.42,0.16-0.63c0.09-0.62,0.15-1.24,0.24-1.86c0.04-0.31,0.12-0.61,0.15-0.92
			c0.11-0.87,0.2-1.75,0.31-2.62c0.03-0.23,0.07-0.46,0.16-0.68c0.33-0.77,0.24-1.58,0.33-2.38c0.11-1.03,0.06-2.08,0.36-3.1
			c0.03-0.11,0.01-0.24,0.02-0.35c0.03-0.69,0.06-1.38,0.1-2.11c0.24,0.04,0.43,0.07,0.61,0.1c0.21-0.4-0.2-0.67-0.21-1.05
			c0.29-0.03,0.54,0.25,0.79,0.01c0.11-0.11,0.22-0.21,0.33-0.31c0.1-0.08,0.22-0.22,0.3-0.2c0.09,0.02,0.23,0.21,0.22,0.29
			C77.65,3.2,77.8,3.3,78.03,3.34c-0.05,0.22-0.09,0.41-0.15,0.72c0.52-0.09,0.92-0.16,1.35-0.24c0.07,0.3,0.18,0.65,0.65,0.61
			c0,0.3,0,0.56,0,0.85c0.14,0.04,0.26,0.08,0.39,0.12c0.14,1.14,0.14,1.14-0.06,1.67c0.81,0.37,0.94,0.55,0.73,1.16
			c-0.06,0-0.14-0.01-0.21-0.01c-0.43-0.03-0.63,0.1-0.59,0.52c0.12,1.15-0.18,2.28-0.16,3.42c0,0.16,0.03,0.32,0.03,0.48
			c-0.01,0.21-0.04,0.42-0.06,0.72c0,0,0.05,0.09,0.12,0.15c0.22,0.19,0.21,0.37,0.08,0.63c-0.25,0.49-0.24,0.86,0,1.43
			c-0.1,0.17-0.2,0.34-0.3,0.51c-0.14,0.23-0.29,0.44,0.04,0.66c0.07,0.05,0.06,0.25,0.06,0.38c0,0.12-0.03,0.25-0.09,0.35
			c-0.34,0.56-0.27,1.18-0.29,1.79c-0.02,0.55-0.09,1.1-0.16,1.65C79.39,21.01,79.28,21.1,79.19,21.23z M77.28,28.14
			c-0.03-0.54-0.06-0.62-0.21-0.52c0.01,0.09,0.02,0.18,0.04,0.27C77.13,27.93,77.18,27.97,77.28,28.14z"></path>
		<path d="M47.86,13.68c0,0.1-0.03,0.24,0.02,0.29c0.47,0.42,0.26,0.93,0.22,1.44c0.13,0,0.26,0,0.38,0
			c0.17,0.53,0.25,1.01-0.28,1.4c0.45,0.41,0.71,0.88,0.83,1.46c0.07-0.12,0.13-0.24,0.21-0.37c0.13,0.31,0.26,0.59,0.4,0.92
			c-0.12,0.14-0.3,0.3-0.41,0.5c-0.31,0.58-0.12,1.15,0.19,1.63c0.32,0.51,0.42,1.05,0.41,1.6c0,0.21,0.01,0.34,0.14,0.45
			c0.39,0.32,0.43,0.78,0.51,1.23c0.05,0.25,0.06,0.5,0.09,0.75c0.17,0.02,0.28,0.03,0.42,0.04c-0.04,0.22-0.08,0.42-0.12,0.64
			c0.07,0.14,0.36-0.16,0.41,0.15c0.02,0.16,0.11,0.32,0.17,0.51c0.07,0.03,0.18,0.07,0.28,0.11c0.02,0.02,0.05,0.04,0.04,0.05
			c-0.19,0.49,0.35,0.65,0.45,1.01c0.02,0.07,0.06,0.17,0.04,0.23c-0.19,0.43,0.07,0.74,0.25,1.09c0.15,0.3,0.48,0.62,0.09,1.01
			c-0.15,0.16,0,0.31,0.4,0.39c0.02,0.19,0.03,0.38,0.05,0.62c-0.39-0.06-0.72-0.47-1.09-0.09c-0.09,0.1-0.18,0.21-0.23,0.33
			c-0.02,0.04,0.06,0.13,0.11,0.22c0.13-0.08,0.24-0.15,0.31-0.2c0.09,0.19,0.19,0.34,0.24,0.52c0.05,0.16,0.01,0.35,0.06,0.51
			c0.06,0.21-0.03,0.29-0.21,0.33c-0.05,0.01-0.08,0.08-0.11,0.13c-0.33,0.61-0.62,0.73-1.3,0.49c-0.02-0.01-0.04-0.02-0.06-0.02
			c-0.95,0.03-1.03-0.72-1.25-1.36c-0.07-0.22-0.16-0.45-0.28-0.65c-0.12-0.18-0.24-0.31-0.22-0.58c0.01-0.21-0.26-0.42-0.33-0.66
			c-0.11-0.36-0.4-0.25-0.67-0.32c-0.32-0.8-0.67-1.59-0.83-2.45c-0.03-0.17-0.11-0.34-0.16-0.51c-0.04-0.15-0.09-0.31-0.08-0.46
			c0.03-0.66-0.2-1.24-0.46-1.82c-0.03-0.07-0.1-0.12-0.19-0.22c0.03-0.1,0.08-0.23,0.1-0.29c-0.16-0.28-0.29-0.5-0.39-0.72
			c-0.36-0.77-0.72-1.55-1.06-2.33c-0.09-0.2-0.18-0.43-0.15-0.63c0.06-0.34-0.1-0.57-0.24-0.83c-0.32-0.62-0.62-1.24-0.67-1.95
			c-0.01-0.08-0.01-0.17-0.05-0.23c-0.41-0.7-0.46-1.52-0.63-2.28c-0.17-0.72-0.42-1.48-0.12-2.21c0.17-0.41,0.07-0.81,0.12-1.2
			c0.08-0.58,0.29-1.1,0.56-1.67c0.13,0.08,0.25,0.16,0.4,0.25c-0.22,0.2-0.38,0.35-0.57,0.53c0.22,0.16,0.46,0.3,0.56,0.08
			c0.24-0.49,0.56-0.29,0.89-0.21c-0.02,0.13-0.04,0.24-0.07,0.46c0.16-0.14,0.24-0.21,0.37-0.33c0.58,0.71,0.96,1.61,1.71,2.1
			c0.08,0.32,0.1,0.63,0.25,0.86c0.09,0.15,0.37,0.18,0.56,0.27C47.88,13.69,47.86,13.68,47.86,13.68z M51.54,30.1
			c0.12-0.55,0.12-0.55-0.28-0.78C51.19,29.65,51.31,29.89,51.54,30.1z"></path>
		<path d="M37.32,41.82c-0.22,0.34-0.46,0.69-0.86,0.92c-0.27,0.16-0.56,0.06-0.8,0.17c-0.24,0.1-0.41,0.35-0.64,0.48
			c-0.24,0.13-0.51,0.18-0.8,0.28c0-0.16,0-0.33,0-0.57c-0.23-0.13-0.49-0.28-0.71-0.41c-0.2-0.26-0.39-0.52-0.61-0.76
			c-0.34-0.38-0.68-0.75-1.04-1.11c-0.35-0.36-0.6-0.81-1.18-0.91c-0.21-0.04-0.44-0.35-0.55-0.58c-0.21-0.46-0.54-0.73-0.97-0.99
			c-0.32-0.2-0.52-0.58-0.77-0.88c-0.08-0.1-0.12-0.28-0.22-0.33c-0.34-0.18-0.52-0.4-0.62-0.8c-0.07-0.28-0.42-0.5-0.68-0.71
			c-0.42-0.33-0.83-0.66-0.98-1.21c-0.37-0.1-0.27-0.74-0.77-0.69c-0.31-0.43-0.85-0.65-1.05-1.19c-0.06-0.16-0.22-0.28-0.33-0.42
			c-0.07-0.09-0.2-0.24-0.17-0.3c0.23-0.46-0.2-0.59-0.4-0.8c-0.25-0.26-0.47-0.49-0.55-0.87c-0.09-0.4-0.3-0.77-0.43-1.16
			c-0.1-0.31-0.13-0.61,0.21-0.83c0.22-0.14,0.17-0.33,0.02-0.51c-0.18-0.2-0.36-0.39-0.54-0.57c0.11-0.2,0.19-0.35,0.29-0.53
			c-0.16-0.11-0.3-0.21-0.47-0.33c0.14-0.24,0.42-0.28,0.6-0.25c0.6,0.11,1.25,0.04,1.76,0.5c0.11,0.1,0.3,0.1,0.38,0.13
			c0.18,0.34,0.29,0.66,0.49,0.9c0.23,0.28,0.37,0.55,0.24,0.89c0.26,0.17,0.49,0.31,0.78,0.5c0.2-0.14,0.46-0.32,0.73-0.52
			c0.11,0.04,0.31,0.1,0.44,0.14c0.27,0.44,0.53,0.85,0.79,1.26c0.05,0.07,0.13,0.15,0.22,0.17c0.81,0.24,1.07,0.54,1.1,1.35
			c0.01,0.23,0.07,0.4,0.24,0.58c0.22,0.24,0.42,0.35,0.67,0.16c0.69,0.66,1.35,1.29,2.01,1.92c0.03,0.03,0.09,0.03,0.1,0.06
			c0.13,0.54,0.69,0.68,0.97,1.06c0.35,0.48,0.97,0.74,1.11,1.4c0.02,0.11,0.18,0.23,0.3,0.26c0.73,0.19,0.98,0.81,1.21,1.4
			c0.19,0.48,0.29,0.99,0.39,1.5c0.05,0.23,0.12,0.39,0.33,0.52c0.32,0.21,0.56,0.47,0.51,0.93C37.05,41.29,37.21,41.52,37.32,41.82
			z"></path>
		<path d="M69.09,80.03c0.11-0.43,0.4-0.44,0.74-0.28c0.33-0.45,0.03-1.25,0.89-1.34c0,0.09,0.04,0.22-0.01,0.26
			c-0.36,0.33-0.17,0.62,0.08,1.01c0.08-0.29,0.13-0.51,0.19-0.73c0.36-0.08,0.69-0.14,0.81,0.33c0.02,0.08,0.14,0.18,0.21,0.19
			c0.26,0.01,0.45,0.12,0.6,0.32c0.02,0.03,0.15-0.01,0.24-0.02c-0.11-0.2-0.21-0.38-0.34-0.63c0.28-0.02,0.45-0.04,0.64-0.05
			c0.02,0.14,0.04,0.25,0.08,0.52c0.12-0.32,0.19-0.51,0.3-0.78c0.16,0.07,0.32,0.14,0.52,0.23c-0.18,0.2-0.35,0.32-0.4,0.47
			c-0.06,0.19-0.11,0.47-0.01,0.61c0.09,0.12,0.38,0.1,0.58,0.12c0.04,0.01,0.1-0.05,0.16-0.09c0.13,0.15,0.25,0.3,0.41,0.49
			c0.1-0.15,0.18-0.26,0.26-0.37c0.03,0.01,0.06,0.02,0.08,0.03c-0.04,0.18-0.08,0.36-0.12,0.52c0.18,0.09,0.36,0.19,0.61,0.33
			c-0.21,0.16-0.34,0.26-0.49,0.38c0.09,0.28,0.23,0.57-0.01,0.87c-0.06,0.08,0.03,0.3,0.1,0.44c0.09,0.19,0.23,0.36,0.35,0.56
			c-0.13,0.11-0.25,0.2-0.31,0.26c0.14,0.31,0.34,0.58,0.4,0.89c0.06,0.29,0.11,0.52,0.37,0.7c0.11,0.07,0.13,0.27,0.19,0.41
			c-0.47,0.2-0.45,0.2-0.39,0.64c0.06,0.5,0.19,1-0.03,1.51c-0.11,0.25,0.17,0.56,0.61,0.74c0.03,0.01,0.06,0.03,0.15,0.07
			c-0.33,0.16-0.12,0.61-0.48,0.76c-0.04,0.02-0.03,0.24,0.02,0.34c0.1,0.24,0.19,0.46-0.15,0.56c0.19,0.27,0.34,0.47,0.5,0.69
			c-0.17,0.04-0.3,0.08-0.51,0.13c0.21,0.16,0.34,0.26,0.46,0.36c-0.04,0.43-0.81,0.43-0.56,1.03c0.14-0.06,0.27-0.12,0.54-0.25
			c-0.13,0.35-0.22,0.58-0.31,0.81c0.14,0.32,0.29,0.66,0.43,1c0.19,0.47,0.18,0.47-0.26,0.71c0.07,0.77,0.43,1.4,1.03,1.94
			c-0.37,0.29-0.61,0.57-0.55,1.03c0.02,0.15-0.17,0.32-0.27,0.5c0.3,0.33,0.47,0.7,0.19,1.16c-0.04,0.06-0.02,0.16-0.02,0.23
			c-0.01,0.34,0.21,0.75-0.29,0.95c-0.01,0-0.02,0.04-0.02,0.05c0.07,0.71-0.23,1.51,0.5,2.07c0.24,0.19,0.24,0.44,0.12,0.69
			c-0.08,0.16-0.18,0.31-0.28,0.48c0.11,0.12,0.22,0.24,0.41,0.44c-0.23,0.01-0.37,0.02-0.52,0.02c-0.03,0.22-0.06,0.45-0.09,0.69
			c0.17,0.22,0.36,0.47,0.61,0.8c-0.33,0-0.53,0-0.74,0c-0.11,0.25-0.2,0.44-0.07,0.71c0.19,0.39,0.1,0.53-0.4,0.74
			c0.1,0.49-0.49,0.91-0.21,1.49c-0.08-0.07-0.16-0.14-0.27-0.24c-0.24,0.18-0.51,0.34-0.78-0.01c-0.03-0.04-0.24,0.05-0.35,0.07
			c-0.25-0.29-0.5-0.58-0.81-0.94c-0.05,0.29-0.08,0.49-0.11,0.7c-0.05,0-0.09,0-0.14,0c-0.04-0.35-0.07-0.7-0.13-1.05
			c-0.08-0.41,0-0.82-0.21-1.25c-0.17-0.35-0.25-0.82-0.33-1.24c-0.12-0.56-0.08-1.16-0.02-1.74c0.09-0.88-0.05-1.76-0.02-2.64
			c0.01-0.2,0.01-0.39,0-0.59c-0.04-0.78-0.09-1.55-0.14-2.33c0-0.04-0.02-0.08-0.01-0.12c0.09-0.58,0.15-1.14,0.04-1.74
			c-0.1-0.58-0.02-1.19-0.04-1.79c-0.02-0.73-0.08-1.46-0.09-2.2c0-0.29,0.09-0.58,0.12-0.87c0.02-0.17,0.07-0.38,0.01-0.53
			c-0.16-0.37-0.08-0.73-0.05-1.11c0.07-0.71,0.05-1.43,0.07-2.14c0.01-0.33,0.02-0.67,0.01-1c0-0.16,0-0.35-0.09-0.47
			c-0.29-0.39-0.39-0.8-0.24-1.39c-0.44,0.16-0.75,0.28-1.1,0.41c-0.11,0.32-0.35,0.54-0.71,0.75c-0.43,0.27-1.01,0.41-1.24,1
			c-0.06,0.16-0.38,0.26-0.6,0.32c-0.24,0.07-0.44,0.13-0.49,0.43c-0.02,0.12-0.19,0.24-0.32,0.3c-0.56,0.27-1.07,0.56-1.31,1.18
			c-0.03,0.07-0.08,0.15-0.14,0.19c-0.23,0.14-0.51,0.22-0.7,0.4c-0.18,0.17-0.25,0.4-0.57,0.43c-0.28,0.02-1,0.7-1.19,0.96
			c-0.07,0.1-0.26,0.22-0.33,0.19c-0.44-0.2-0.8,0.1-1.17,0.13c-0.4-0.41-0.78-0.81-1.23-1.27c0,0.29,0,0.5,0,0.72
			c-0.35,0-0.4-0.29-0.38-0.46c0.07-0.58-0.26-1.07-0.29-1.62c-0.01-0.2-0.17-0.36,0-0.59c0.08-0.12,0.01-0.34,0.01-0.43
			c0.27-0.39,0.51-0.72,0.76-1.08c0.17,0.1,0.35,0.21,0.58,0.34c0.14-0.34,0.26-0.63,0.39-0.93c0.04,0.03,0.1,0.09,0.2,0.18
			c0.06-0.07,0.17-0.13,0.17-0.2c-0.01-0.38,0.15-0.63,0.47-0.81c0.11-0.06,0.18-0.24,0.23-0.38c0.18-0.56,0.59-0.9,1.07-1.28
			c0.02,0.14,0.05,0.23,0.03,0.24c-0.33,0.16-0.34,0.65-0.77,0.72c-0.03,0.01-0.03,0.24-0.04,0.37c0.14-0.01,0.38,0.04,0.42-0.03
			c0.2-0.37,0.63-0.37,0.91-0.59c0.03-0.02,0.11,0.02,0.21,0.04c-0.08,0.16-0.14,0.3-0.23,0.48c0.43,0.1,0.53-0.24,0.8-0.42
			c-0.14-0.11-0.24-0.19-0.39-0.31c0.15-0.03,0.27-0.06,0.44-0.1c0.1-0.2,0.06-0.54,0.41-0.66c0.09-0.03,0.13-0.23,0.18-0.36
			c0.16-0.37,0.14-0.4-0.26-0.52c-0.04-0.01-0.08-0.02-0.12-0.03c-0.01-0.01-0.02-0.02-0.06-0.06c0.07-0.15,0.15-0.3,0.23-0.47
			c0.13,0.05,0.25,0.14,0.36,0.13c0.14,0,0.28-0.08,0.19-0.28c-0.01-0.02,0.03-0.1,0.06-0.1c0.29-0.03,0.36-0.29,0.51-0.47
			c0.42-0.5,0.73-0.52,1.28-0.05c0.26-0.19,0.53-0.39,0.79-0.59c0.02,0.1,0.04,0.19,0.05,0.29c0.04,0,0.08,0.01,0.12,0.01
			c0.02-0.11,0.04-0.22,0.06-0.32C69.25,80.01,69.17,80.02,69.09,80.03z M69.3,81.72c0.16-0.14,0.32-0.23,0.22-0.45
			c-0.02-0.04-0.11-0.08-0.15-0.06C69.18,81.31,69.13,81.45,69.3,81.72z M67.85,82.51c-0.07,0.1-0.16,0.17-0.15,0.22
			c0.02,0.07,0.1,0.13,0.15,0.2c0.04-0.06,0.11-0.12,0.12-0.18C67.98,82.69,67.92,82.62,67.85,82.51z"></path>
	</g>
</g>
</svg>